<?xml version="1.0" encoding="utf-8"?>
<svg xmlns="http://www.w3.org/2000/svg"
    xmlns:xlink="http://www.w3.org/1999/xlink"
    width="520" height="520" viewBox="-10 -10 520 520">
<defs>
<style type="text/css"><![CDATA[
line {
    stroke: #FF1493;
    stroke-linecap: square;
    stroke-width: 5;
}
]]></style>
</defs>
<line x1="0.0" y1="25.0" x2="16.666666666666668" y2="25.0"/>
<line x1="16.666666666666668" y1="50.0" x2="16.666666666666668" y2="75.0"/>
<line x1="0.0" y1="100.0" x2="16.666666666666668" y2="100.0"/>
<line x1="16.666666666666668" y1="125.0" x2="16.666666666666668" y2="150.0"/>
<line x1="16.666666666666668" y1="150.0" x2="16.666666666666668" y2="175.0"/>
<line x1="0.0" y1="200.0" x2="16.666666666666668" y2="200.0"/>
<line x1="0.0" y1="250.0" x2="16.666666666666668" y2="250.0"/>
<line x1="0.0" y1="300.0" x2="16.666666666666668" y2="300.0"/>
<line x1="16.666666666666668" y1="325.0" x2="16.666666666666668" y2="350.0"/>
<line x1="16.666666666666668" y1="350.0" x2="16.666666666666668" y2="375.0"/>
<line x1="0.0" y1="400.0" x2="16.666666666666668" y2="400.0"/>
<line x1="16.666666666666668" y1="400.0" x2="16.666666666666668" y2="425.0"/>
<line x1="16.666666666666668" y1="425.0" x2="16.666666666666668" y2="450.0"/>
<line x1="0.0" y1="500.0" x2="16.666666666666668" y2="500.0"/>
<line x1="16.666666666666668" y1="25.0" x2="33.333333333333336" y2="25.0"/>
<line x1="16.666666666666668" y1="50.0" x2="33.333333333333336" y2="50.0"/>
<line x1="16.666666666666668" y1="100.0" x2="33.333333333333336" y2="100.0"/>
<line x1="33.333333333333336" y1="75.0" x2="33.333333333333336" y2="100.0"/>
<line x1="16.666666666666668" y1="150.0" x2="33.333333333333336" y2="150.0"/>
<line x1="16.666666666666668" y1="175.0" x2="33.333333333333336" y2="175.0"/>
<line x1="16.666666666666668" y1="200.0" x2="33.333333333333336" y2="200.0"/>
<line x1="16.666666666666668" y1="225.0" x2="33.333333333333336" y2="225.0"/>
<line x1="33.333333333333336" y1="225.0" x2="33.333333333333336" y2="250.0"/>
<line x1="16.666666666666668" y1="275.0" x2="33.333333333333336" y2="275.0"/>
<line x1="33.333333333333336" y1="250.0" x2="33.333333333333336" y2="275.0"/>
<line x1="33.333333333333336" y1="275.0" x2="33.333333333333336" y2="300.0"/>
<line x1="16.666666666666668" y1="325.0" x2="33.333333333333336" y2="325.0"/>
<line x1="33.333333333333336" y1="300.0" x2="33.333333333333336" y2="325.0"/>
<line x1="33.333333333333336" y1="350.0" x2="33.333333333333336" y2="375.0"/>
<line x1="16.666666666666668" y1="400.0" x2="33.333333333333336" y2="400.0"/>
<line x1="33.333333333333336" y1="375.0" x2="33.333333333333336" y2="400.0"/>
<line x1="16.666666666666668" y1="450.0" x2="33.333333333333336" y2="450.0"/>
<line x1="16.666666666666668" y1="475.0" x2="33.333333333333336" y2="475.0"/>
<line x1="33.333333333333336" y1="450.0" x2="33.333333333333336" y2="475.0"/>
<line x1="33.333333333333336" y1="475.0" x2="33.333333333333336" y2="500.0"/>
<line x1="50.0" y1="0.0" x2="50.0" y2="25.0"/>
<line x1="33.333333333333336" y1="50.0" x2="50.0" y2="50.0"/>
<line x1="50.0" y1="25.0" x2="50.0" y2="50.0"/>
<line x1="33.333333333333336" y1="75.0" x2="50.0" y2="75.0"/>
<line x1="50.0" y1="75.0" x2="50.0" y2="100.0"/>
<line x1="33.333333333333336" y1="125.0" x2="50.0" y2="125.0"/>
<line x1="50.0" y1="100.0" x2="50.0" y2="125.0"/>
<line x1="33.333333333333336" y1="150.0" x2="50.0" y2="150.0"/>
<line x1="33.333333333333336" y1="200.0" x2="50.0" y2="200.0"/>
<line x1="50.0" y1="175.0" x2="50.0" y2="200.0"/>
<line x1="50.0" y1="200.0" x2="50.0" y2="225.0"/>
<line x1="33.333333333333336" y1="250.0" x2="50.0" y2="250.0"/>
<line x1="33.333333333333336" y1="300.0" x2="50.0" y2="300.0"/>
<line x1="33.333333333333336" y1="350.0" x2="50.0" y2="350.0"/>
<line x1="50.0" y1="325.0" x2="50.0" y2="350.0"/>
<line x1="33.333333333333336" y1="400.0" x2="50.0" y2="400.0"/>
<line x1="33.333333333333336" y1="425.0" x2="50.0" y2="425.0"/>
<line x1="50.0" y1="425.0" x2="50.0" y2="450.0"/>
<line x1="33.333333333333336" y1="475.0" x2="50.0" y2="475.0"/>
<line x1="50.0" y1="25.0" x2="66.66666666666667" y2="25.0"/>
<line x1="50.0" y1="75.0" x2="66.66666666666667" y2="75.0"/>
<line x1="66.66666666666667" y1="50.0" x2="66.66666666666667" y2="75.0"/>
<line x1="66.66666666666667" y1="100.0" x2="66.66666666666667" y2="125.0"/>
<line x1="50.0" y1="150.0" x2="66.66666666666667" y2="150.0"/>
<line x1="66.66666666666667" y1="125.0" x2="66.66666666666667" y2="150.0"/>
<line x1="66.66666666666667" y1="150.0" x2="66.66666666666667" y2="175.0"/>
<line x1="66.66666666666667" y1="175.0" x2="66.66666666666667" y2="200.0"/>
<line x1="66.66666666666667" y1="200.0" x2="66.66666666666667" y2="225.0"/>
<line x1="50.0" y1="250.0" x2="66.66666666666667" y2="250.0"/>
<line x1="66.66666666666667" y1="225.0" x2="66.66666666666667" y2="250.0"/>
<line x1="50.0" y1="275.0" x2="66.66666666666667" y2="275.0"/>
<line x1="50.0" y1="300.0" x2="66.66666666666667" y2="300.0"/>
<line x1="66.66666666666667" y1="275.0" x2="66.66666666666667" y2="300.0"/>
<line x1="66.66666666666667" y1="300.0" x2="66.66666666666667" y2="325.0"/>
<line x1="66.66666666666667" y1="325.0" x2="66.66666666666667" y2="350.0"/>
<line x1="50.0" y1="375.0" x2="66.66666666666667" y2="375.0"/>
<line x1="66.66666666666667" y1="350.0" x2="66.66666666666667" y2="375.0"/>
<line x1="50.0" y1="400.0" x2="66.66666666666667" y2="400.0"/>
<line x1="50.0" y1="425.0" x2="66.66666666666667" y2="425.0"/>
<line x1="50.0" y1="450.0" x2="66.66666666666667" y2="450.0"/>
<line x1="50.0" y1="475.0" x2="66.66666666666667" y2="475.0"/>
<line x1="66.66666666666667" y1="475.0" x2="66.66666666666667" y2="500.0"/>
<line x1="66.66666666666667" y1="50.0" x2="83.33333333333334" y2="50.0"/>
<line x1="83.33333333333334" y1="25.0" x2="83.33333333333334" y2="50.0"/>
<line x1="66.66666666666667" y1="100.0" x2="83.33333333333334" y2="100.0"/>
<line x1="83.33333333333334" y1="75.0" x2="83.33333333333334" y2="100.0"/>
<line x1="83.33333333333334" y1="150.0" x2="83.33333333333334" y2="175.0"/>
<line x1="83.33333333333334" y1="175.0" x2="83.33333333333334" y2="200.0"/>
<line x1="66.66666666666667" y1="225.0" x2="83.33333333333334" y2="225.0"/>
<line x1="66.66666666666667" y1="275.0" x2="83.33333333333334" y2="275.0"/>
<line x1="83.33333333333334" y1="300.0" x2="83.33333333333334" y2="325.0"/>
<line x1="66.66666666666667" y1="375.0" x2="83.33333333333334" y2="375.0"/>
<line x1="83.33333333333334" y1="350.0" x2="83.33333333333334" y2="375.0"/>
<line x1="66.66666666666667" y1="400.0" x2="83.33333333333334" y2="400.0"/>
<line x1="66.66666666666667" y1="425.0" x2="83.33333333333334" y2="425.0"/>
<line x1="66.66666666666667" y1="475.0" x2="83.33333333333334" y2="475.0"/>
<line x1="83.33333333333334" y1="450.0" x2="83.33333333333334" y2="475.0"/>
<line x1="100.0" y1="0.0" x2="100.0" y2="25.0"/>
<line x1="100.0" y1="25.0" x2="100.0" y2="50.0"/>
<line x1="83.33333333333334" y1="75.0" x2="100.0" y2="75.0"/>
<line x1="100.0" y1="50.0" x2="100.0" y2="75.0"/>
<line x1="83.33333333333334" y1="100.0" x2="100.0" y2="100.0"/>
<line x1="83.33333333333334" y1="125.0" x2="100.0" y2="125.0"/>
<line x1="100.0" y1="125.0" x2="100.0" y2="150.0"/>
<line x1="83.33333333333334" y1="175.0" x2="100.0" y2="175.0"/>
<line x1="83.33333333333334" y1="225.0" x2="100.0" y2="225.0"/>
<line x1="100.0" y1="200.0" x2="100.0" y2="225.0"/>
<line x1="83.33333333333334" y1="250.0" x2="100.0" y2="250.0"/>
<line x1="100.0" y1="225.0" x2="100.0" y2="250.0"/>
<line x1="100.0" y1="250.0" x2="100.0" y2="275.0"/>
<line x1="83.33333333333334" y1="300.0" x2="100.0" y2="300.0"/>
<line x1="100.0" y1="275.0" x2="100.0" y2="300.0"/>
<line x1="83.33333333333334" y1="350.0" x2="100.0" y2="350.0"/>
<line x1="83.33333333333334" y1="400.0" x2="100.0" y2="400.0"/>
<line x1="100.0" y1="375.0" x2="100.0" y2="400.0"/>
<line x1="83.33333333333334" y1="425.0" x2="100.0" y2="425.0"/>
<line x1="100.0" y1="425.0" x2="100.0" y2="450.0"/>
<line x1="100.0" y1="450.0" x2="100.0" y2="475.0"/>
<line x1="83.33333333333334" y1="500.0" x2="100.0" y2="500.0"/>
<line x1="100.0" y1="475.0" x2="100.0" y2="500.0"/>
<line x1="100.0" y1="50.0" x2="116.66666666666667" y2="50.0"/>
<line x1="100.0" y1="100.0" x2="116.66666666666667" y2="100.0"/>
<line x1="116.66666666666667" y1="100.0" x2="116.66666666666667" y2="125.0"/>
<line x1="100.0" y1="150.0" x2="116.66666666666667" y2="150.0"/>
<line x1="100.0" y1="175.0" x2="116.66666666666667" y2="175.0"/>
<line x1="116.66666666666667" y1="200.0" x2="116.66666666666667" y2="225.0"/>
<line x1="116.66666666666667" y1="225.0" x2="116.66666666666667" y2="250.0"/>
<line x1="116.66666666666667" y1="250.0" x2="116.66666666666667" y2="275.0"/>
<line x1="100.0" y1="300.0" x2="116.66666666666667" y2="300.0"/>
<line x1="100.0" y1="325.0" x2="116.66666666666667" y2="325.0"/>
<line x1="100.0" y1="350.0" x2="116.66666666666667" y2="350.0"/>
<line x1="116.66666666666667" y1="325.0" x2="116.66666666666667" y2="350.0"/>
<line x1="116.66666666666667" y1="350.0" x2="116.66666666666667" y2="375.0"/>
<line x1="100.0" y1="400.0" x2="116.66666666666667" y2="400.0"/>
<line x1="100.0" y1="425.0" x2="116.66666666666667" y2="425.0"/>
<line x1="116.66666666666667" y1="450.0" x2="116.66666666666667" y2="475.0"/>
<line x1="100.0" y1="500.0" x2="116.66666666666667" y2="500.0"/>
<line x1="116.66666666666667" y1="25.0" x2="133.33333333333334" y2="25.0"/>
<line x1="133.33333333333334" y1="25.0" x2="133.33333333333334" y2="50.0"/>
<line x1="116.66666666666667" y1="75.0" x2="133.33333333333334" y2="75.0"/>
<line x1="133.33333333333334" y1="50.0" x2="133.33333333333334" y2="75.0"/>
<line x1="133.33333333333334" y1="75.0" x2="133.33333333333334" y2="100.0"/>
<line x1="133.33333333333334" y1="100.0" x2="133.33333333333334" y2="125.0"/>
<line x1="116.66666666666667" y1="150.0" x2="133.33333333333334" y2="150.0"/>
<line x1="116.66666666666667" y1="175.0" x2="133.33333333333334" y2="175.0"/>
<line x1="116.66666666666667" y1="200.0" x2="133.33333333333334" y2="200.0"/>
<line x1="133.33333333333334" y1="175.0" x2="133.33333333333334" y2="200.0"/>
<line x1="116.66666666666667" y1="250.0" x2="133.33333333333334" y2="250.0"/>
<line x1="133.33333333333334" y1="250.0" x2="133.33333333333334" y2="275.0"/>
<line x1="133.33333333333334" y1="275.0" x2="133.33333333333334" y2="300.0"/>
<line x1="116.66666666666667" y1="325.0" x2="133.33333333333334" y2="325.0"/>
<line x1="133.33333333333334" y1="300.0" x2="133.33333333333334" y2="325.0"/>
<line x1="133.33333333333334" y1="350.0" x2="133.33333333333334" y2="375.0"/>
<line x1="116.66666666666667" y1="400.0" x2="133.33333333333334" y2="400.0"/>
<line x1="133.33333333333334" y1="375.0" x2="133.33333333333334" y2="400.0"/>
<line x1="116.66666666666667" y1="425.0" x2="133.33333333333334" y2="425.0"/>
<line x1="133.33333333333334" y1="425.0" x2="133.33333333333334" y2="450.0"/>
<line x1="116.66666666666667" y1="475.0" x2="133.33333333333334" y2="475.0"/>
<line x1="133.33333333333334" y1="475.0" x2="133.33333333333334" y2="500.0"/>
<line x1="150.0" y1="0.0" x2="150.0" y2="25.0"/>
<line x1="133.33333333333334" y1="50.0" x2="150.0" y2="50.0"/>
<line x1="150.0" y1="25.0" x2="150.0" y2="50.0"/>
<line x1="150.0" y1="75.0" x2="150.0" y2="100.0"/>
<line x1="133.33333333333334" y1="125.0" x2="150.0" y2="125.0"/>
<line x1="133.33333333333334" y1="150.0" x2="150.0" y2="150.0"/>
<line x1="133.33333333333334" y1="175.0" x2="150.0" y2="175.0"/>
<line x1="133.33333333333334" y1="225.0" x2="150.0" y2="225.0"/>
<line x1="150.0" y1="200.0" x2="150.0" y2="225.0"/>
<line x1="150.0" y1="225.0" x2="150.0" y2="250.0"/>
<line x1="150.0" y1="250.0" x2="150.0" y2="275.0"/>
<line x1="150.0" y1="275.0" x2="150.0" y2="300.0"/>
<line x1="150.0" y1="300.0" x2="150.0" y2="325.0"/>
<line x1="133.33333333333334" y1="350.0" x2="150.0" y2="350.0"/>
<line x1="150.0" y1="325.0" x2="150.0" y2="350.0"/>
<line x1="150.0" y1="400.0" x2="150.0" y2="425.0"/>
<line x1="133.33333333333334" y1="450.0" x2="150.0" y2="450.0"/>
<line x1="150.0" y1="425.0" x2="150.0" y2="450.0"/>
<line x1="150.0" y1="450.0" x2="150.0" y2="475.0"/>
<line x1="150.0" y1="475.0" x2="150.0" y2="500.0"/>
<line x1="166.66666666666669" y1="25.0" x2="166.66666666666669" y2="50.0"/>
<line x1="150.0" y1="75.0" x2="166.66666666666669" y2="75.0"/>
<line x1="166.66666666666669" y1="50.0" x2="166.66666666666669" y2="75.0"/>
<line x1="150.0" y1="100.0" x2="166.66666666666669" y2="100.0"/>
<line x1="150.0" y1="125.0" x2="166.66666666666669" y2="125.0"/>
<line x1="150.0" y1="150.0" x2="166.66666666666669" y2="150.0"/>
<line x1="166.66666666666669" y1="125.0" x2="166.66666666666669" y2="150.0"/>
<line x1="150.0" y1="175.0" x2="166.66666666666669" y2="175.0"/>
<line x1="150.0" y1="200.0" x2="166.66666666666669" y2="200.0"/>
<line x1="166.66666666666669" y1="225.0" x2="166.66666666666669" y2="250.0"/>
<line x1="150.0" y1="325.0" x2="166.66666666666669" y2="325.0"/>
<line x1="166.66666666666669" y1="300.0" x2="166.66666666666669" y2="325.0"/>
<line x1="150.0" y1="375.0" x2="166.66666666666669" y2="375.0"/>
<line x1="166.66666666666669" y1="350.0" x2="166.66666666666669" y2="375.0"/>
<line x1="166.66666666666669" y1="375.0" x2="166.66666666666669" y2="400.0"/>
<line x1="150.0" y1="425.0" x2="166.66666666666669" y2="425.0"/>
<line x1="166.66666666666669" y1="450.0" x2="166.66666666666669" y2="475.0"/>
<line x1="150.0" y1="500.0" x2="166.66666666666669" y2="500.0"/>
<line x1="166.66666666666669" y1="50.0" x2="183.33333333333334" y2="50.0"/>
<line x1="166.66666666666669" y1="100.0" x2="183.33333333333334" y2="100.0"/>
<line x1="183.33333333333334" y1="75.0" x2="183.33333333333334" y2="100.0"/>
<line x1="183.33333333333334" y1="100.0" x2="183.33333333333334" y2="125.0"/>
<line x1="183.33333333333334" y1="125.0" x2="183.33333333333334" y2="150.0"/>
<line x1="166.66666666666669" y1="175.0" x2="183.33333333333334" y2="175.0"/>
<line x1="166.66666666666669" y1="200.0" x2="183.33333333333334" y2="200.0"/>
<line x1="166.66666666666669" y1="225.0" x2="183.33333333333334" y2="225.0"/>
<line x1="166.66666666666669" y1="275.0" x2="183.33333333333334" y2="275.0"/>
<line x1="183.33333333333334" y1="250.0" x2="183.33333333333334" y2="275.0"/>
<line x1="166.66666666666669" y1="300.0" x2="183.33333333333334" y2="300.0"/>
<line x1="183.33333333333334" y1="325.0" x2="183.33333333333334" y2="350.0"/>
<line x1="166.66666666666669" y1="375.0" x2="183.33333333333334" y2="375.0"/>
<line x1="183.33333333333334" y1="350.0" x2="183.33333333333334" y2="375.0"/>
<line x1="166.66666666666669" y1="425.0" x2="183.33333333333334" y2="425.0"/>
<line x1="183.33333333333334" y1="400.0" x2="183.33333333333334" y2="425.0"/>
<line x1="183.33333333333334" y1="425.0" x2="183.33333333333334" y2="450.0"/>
<line x1="166.66666666666669" y1="475.0" x2="183.33333333333334" y2="475.0"/>
<line x1="166.66666666666669" y1="500.0" x2="183.33333333333334" y2="500.0"/>
<line x1="183.33333333333334" y1="25.0" x2="200.0" y2="25.0"/>
<line x1="200.0" y1="0.0" x2="200.0" y2="25.0"/>
<line x1="183.33333333333334" y1="50.0" x2="200.0" y2="50.0"/>
<line x1="200.0" y1="75.0" x2="200.0" y2="100.0"/>
<line x1="200.0" y1="100.0" x2="200.0" y2="125.0"/>
<line x1="200.0" y1="125.0" x2="200.0" y2="150.0"/>
<line x1="183.33333333333334" y1="175.0" x2="200.0" y2="175.0"/>
<line x1="200.0" y1="150.0" x2="200.0" y2="175.0"/>
<line x1="183.33333333333334" y1="200.0" x2="200.0" y2="200.0"/>
<line x1="183.33333333333334" y1="225.0" x2="200.0" y2="225.0"/>
<line x1="200.0" y1="225.0" x2="200.0" y2="250.0"/>
<line x1="183.33333333333334" y1="275.0" x2="200.0" y2="275.0"/>
<line x1="183.33333333333334" y1="300.0" x2="200.0" y2="300.0"/>
<line x1="200.0" y1="275.0" x2="200.0" y2="300.0"/>
<line x1="183.33333333333334" y1="325.0" x2="200.0" y2="325.0"/>
<line x1="183.33333333333334" y1="375.0" x2="200.0" y2="375.0"/>
<line x1="200.0" y1="375.0" x2="200.0" y2="400.0"/>
<line x1="200.0" y1="400.0" x2="200.0" y2="425.0"/>
<line x1="200.0" y1="425.0" x2="200.0" y2="450.0"/>
<line x1="183.33333333333334" y1="475.0" x2="200.0" y2="475.0"/>
<line x1="200.0" y1="450.0" x2="200.0" y2="475.0"/>
<line x1="200.0" y1="475.0" x2="200.0" y2="500.0"/>
<line x1="200.0" y1="50.0" x2="216.66666666666669" y2="50.0"/>
<line x1="216.66666666666669" y1="25.0" x2="216.66666666666669" y2="50.0"/>
<line x1="200.0" y1="100.0" x2="216.66666666666669" y2="100.0"/>
<line x1="216.66666666666669" y1="75.0" x2="216.66666666666669" y2="100.0"/>
<line x1="216.66666666666669" y1="125.0" x2="216.66666666666669" y2="150.0"/>
<line x1="216.66666666666669" y1="150.0" x2="216.66666666666669" y2="175.0"/>
<line x1="200.0" y1="200.0" x2="216.66666666666669" y2="200.0"/>
<line x1="216.66666666666669" y1="175.0" x2="216.66666666666669" y2="200.0"/>
<line x1="216.66666666666669" y1="200.0" x2="216.66666666666669" y2="225.0"/>
<line x1="200.0" y1="250.0" x2="216.66666666666669" y2="250.0"/>
<line x1="216.66666666666669" y1="250.0" x2="216.66666666666669" y2="275.0"/>
<line x1="216.66666666666669" y1="275.0" x2="216.66666666666669" y2="300.0"/>
<line x1="200.0" y1="325.0" x2="216.66666666666669" y2="325.0"/>
<line x1="216.66666666666669" y1="300.0" x2="216.66666666666669" y2="325.0"/>
<line x1="200.0" y1="350.0" x2="216.66666666666669" y2="350.0"/>
<line x1="200.0" y1="375.0" x2="216.66666666666669" y2="375.0"/>
<line x1="200.0" y1="425.0" x2="216.66666666666669" y2="425.0"/>
<line x1="216.66666666666669" y1="450.0" x2="216.66666666666669" y2="475.0"/>
<line x1="216.66666666666669" y1="475.0" x2="216.66666666666669" y2="500.0"/>
<line x1="216.66666666666669" y1="50.0" x2="233.33333333333334" y2="50.0"/>
<line x1="216.66666666666669" y1="75.0" x2="233.33333333333334" y2="75.0"/>
<line x1="233.33333333333334" y1="50.0" x2="233.33333333333334" y2="75.0"/>
<line x1="216.66666666666669" y1="125.0" x2="233.33333333333334" y2="125.0"/>
<line x1="233.33333333333334" y1="100.0" x2="233.33333333333334" y2="125.0"/>
<line x1="233.33333333333334" y1="125.0" x2="233.33333333333334" y2="150.0"/>
<line x1="233.33333333333334" y1="150.0" x2="233.33333333333334" y2="175.0"/>
<line x1="233.33333333333334" y1="175.0" x2="233.33333333333334" y2="200.0"/>
<line x1="216.66666666666669" y1="225.0" x2="233.33333333333334" y2="225.0"/>
<line x1="233.33333333333334" y1="225.0" x2="233.33333333333334" y2="250.0"/>
<line x1="233.33333333333334" y1="250.0" x2="233.33333333333334" y2="275.0"/>
<line x1="216.66666666666669" y1="300.0" x2="233.33333333333334" y2="300.0"/>
<line x1="216.66666666666669" y1="350.0" x2="233.33333333333334" y2="350.0"/>
<line x1="233.33333333333334" y1="325.0" x2="233.33333333333334" y2="350.0"/>
<line x1="216.66666666666669" y1="375.0" x2="233.33333333333334" y2="375.0"/>
<line x1="216.66666666666669" y1="400.0" x2="233.33333333333334" y2="400.0"/>
<line x1="216.66666666666669" y1="425.0" x2="233.33333333333334" y2="425.0"/>
<line x1="216.66666666666669" y1="475.0" x2="233.33333333333334" y2="475.0"/>
<line x1="216.66666666666669" y1="500.0" x2="233.33333333333334" y2="500.0"/>
<line x1="233.33333333333334" y1="25.0" x2="250.00000000000003" y2="25.0"/>
<line x1="250.00000000000003" y1="0.0" x2="250.00000000000003" y2="25.0"/>
<line x1="250.00000000000003" y1="25.0" x2="250.00000000000003" y2="50.0"/>
<line x1="233.33333333333334" y1="75.0" x2="250.00000000000003" y2="75.0"/>
<line x1="250.00000000000003" y1="75.0" x2="250.00000000000003" y2="100.0"/>
<line x1="250.00000000000003" y1="100.0" x2="250.00000000000003" y2="125.0"/>
<line x1="233.33333333333334" y1="150.0" x2="250.00000000000003" y2="150.0"/>
<line x1="250.00000000000003" y1="175.0" x2="250.00000000000003" y2="200.0"/>
<line x1="250.00000000000003" y1="200.0" x2="250.00000000000003" y2="225.0"/>
<line x1="233.33333333333334" y1="250.0" x2="250.00000000000003" y2="250.0"/>
<line x1="233.33333333333334" y1="300.0" x2="250.00000000000003" y2="300.0"/>
<line x1="250.00000000000003" y1="275.0" x2="250.00000000000003" y2="300.0"/>
<line x1="233.33333333333334" y1="325.0" x2="250.00000000000003" y2="325.0"/>
<line x1="233.33333333333334" y1="375.0" x2="250.00000000000003" y2="375.0"/>
<line x1="250.00000000000003" y1="350.0" x2="250.00000000000003" y2="375.0"/>
<line x1="233.33333333333334" y1="400.0" x2="250.00000000000003" y2="400.0"/>
<line x1="233.33333333333334" y1="425.0" x2="250.00000000000003" y2="425.0"/>
<line x1="233.33333333333334" y1="450.0" x2="250.00000000000003" y2="450.0"/>
<line x1="250.00000000000003" y1="425.0" x2="250.00000000000003" y2="450.0"/>
<line x1="233.33333333333334" y1="475.0" x2="250.00000000000003" y2="475.0"/>
<line x1="266.6666666666667" y1="25.0" x2="266.6666666666667" y2="50.0"/>
<line x1="250.00000000000003" y1="75.0" x2="266.6666666666667" y2="75.0"/>
<line x1="266.6666666666667" y1="75.0" x2="266.6666666666667" y2="100.0"/>
<line x1="250.00000000000003" y1="125.0" x2="266.6666666666667" y2="125.0"/>
<line x1="250.00000000000003" y1="150.0" x2="266.6666666666667" y2="150.0"/>
<line x1="266.6666666666667" y1="175.0" x2="266.6666666666667" y2="200.0"/>
<line x1="250.00000000000003" y1="225.0" x2="266.6666666666667" y2="225.0"/>
<line x1="250.00000000000003" y1="250.0" x2="266.6666666666667" y2="250.0"/>
<line x1="266.6666666666667" y1="225.0" x2="266.6666666666667" y2="250.0"/>
<line x1="250.00000000000003" y1="275.0" x2="266.6666666666667" y2="275.0"/>
<line x1="250.00000000000003" y1="325.0" x2="266.6666666666667" y2="325.0"/>
<line x1="266.6666666666667" y1="300.0" x2="266.6666666666667" y2="325.0"/>
<line x1="266.6666666666667" y1="350.0" x2="266.6666666666667" y2="375.0"/>
<line x1="250.00000000000003" y1="400.0" x2="266.6666666666667" y2="400.0"/>
<line x1="266.6666666666667" y1="375.0" x2="266.6666666666667" y2="400.0"/>
<line x1="266.6666666666667" y1="400.0" x2="266.6666666666667" y2="425.0"/>
<line x1="266.6666666666667" y1="425.0" x2="266.6666666666667" y2="450.0"/>
<line x1="250.00000000000003" y1="475.0" x2="266.6666666666667" y2="475.0"/>
<line x1="266.6666666666667" y1="450.0" x2="266.6666666666667" y2="475.0"/>
<line x1="250.00000000000003" y1="500.0" x2="266.6666666666667" y2="500.0"/>
<line x1="266.6666666666667" y1="50.0" x2="283.33333333333337" y2="50.0"/>
<line x1="283.33333333333337" y1="50.0" x2="283.33333333333337" y2="75.0"/>
<line x1="283.33333333333337" y1="75.0" x2="283.33333333333337" y2="100.0"/>
<line x1="266.6666666666667" y1="125.0" x2="283.33333333333337" y2="125.0"/>
<line x1="283.33333333333337" y1="100.0" x2="283.33333333333337" y2="125.0"/>
<line x1="266.6666666666667" y1="150.0" x2="283.33333333333337" y2="150.0"/>
<line x1="266.6666666666667" y1="175.0" x2="283.33333333333337" y2="175.0"/>
<line x1="266.6666666666667" y1="200.0" x2="283.33333333333337" y2="200.0"/>
<line x1="283.33333333333337" y1="200.0" x2="283.33333333333337" y2="225.0"/>
<line x1="283.33333333333337" y1="225.0" x2="283.33333333333337" y2="250.0"/>
<line x1="266.6666666666667" y1="275.0" x2="283.33333333333337" y2="275.0"/>
<line x1="283.33333333333337" y1="250.0" x2="283.33333333333337" y2="275.0"/>
<line x1="266.6666666666667" y1="300.0" x2="283.33333333333337" y2="300.0"/>
<line x1="283.33333333333337" y1="300.0" x2="283.33333333333337" y2="325.0"/>
<line x1="266.6666666666667" y1="350.0" x2="283.33333333333337" y2="350.0"/>
<line x1="283.33333333333337" y1="325.0" x2="283.33333333333337" y2="350.0"/>
<line x1="283.33333333333337" y1="375.0" x2="283.33333333333337" y2="400.0"/>
<line x1="283.33333333333337" y1="400.0" x2="283.33333333333337" y2="425.0"/>
<line x1="283.33333333333337" y1="425.0" x2="283.33333333333337" y2="450.0"/>
<line x1="266.6666666666667" y1="475.0" x2="283.33333333333337" y2="475.0"/>
<line x1="283.33333333333337" y1="475.0" x2="283.33333333333337" y2="500.0"/>
<line x1="283.33333333333337" y1="25.0" x2="300.0" y2="25.0"/>
<line x1="300.0" y1="25.0" x2="300.0" y2="50.0"/>
<line x1="283.33333333333337" y1="75.0" x2="300.0" y2="75.0"/>
<line x1="300.0" y1="100.0" x2="300.0" y2="125.0"/>
<line x1="283.33333333333337" y1="150.0" x2="300.0" y2="150.0"/>
<line x1="300.0" y1="125.0" x2="300.0" y2="150.0"/>
<line x1="283.33333333333337" y1="175.0" x2="300.0" y2="175.0"/>
<line x1="283.33333333333337" y1="225.0" x2="300.0" y2="225.0"/>
<line x1="283.33333333333337" y1="275.0" x2="300.0" y2="275.0"/>
<line x1="300.0" y1="275.0" x2="300.0" y2="300.0"/>
<line x1="300.0" y1="300.0" x2="300.0" y2="325.0"/>
<line x1="300.0" y1="325.0" x2="300.0" y2="350.0"/>
<line x1="300.0" y1="350.0" x2="300.0" y2="375.0"/>
<line x1="283.33333333333337" y1="400.0" x2="300.0" y2="400.0"/>
<line x1="300.0" y1="375.0" x2="300.0" y2="400.0"/>
<line x1="300.0" y1="425.0" x2="300.0" y2="450.0"/>
<line x1="283.33333333333337" y1="475.0" x2="300.0" y2="475.0"/>
<line x1="300.0" y1="450.0" x2="300.0" y2="475.0"/>
<line x1="283.33333333333337" y1="500.0" x2="300.0" y2="500.0"/>
<line x1="300.0" y1="25.0" x2="316.6666666666667" y2="25.0"/>
<line x1="300.0" y1="75.0" x2="316.6666666666667" y2="75.0"/>
<line x1="316.6666666666667" y1="75.0" x2="316.6666666666667" y2="100.0"/>
<line x1="300.0" y1="125.0" x2="316.6666666666667" y2="125.0"/>
<line x1="300.0" y1="175.0" x2="316.6666666666667" y2="175.0"/>
<line x1="316.6666666666667" y1="150.0" x2="316.6666666666667" y2="175.0"/>
<line x1="300.0" y1="200.0" x2="316.6666666666667" y2="200.0"/>
<line x1="300.0" y1="225.0" x2="316.6666666666667" y2="225.0"/>
<line x1="300.0" y1="250.0" x2="316.6666666666667" y2="250.0"/>
<line x1="316.6666666666667" y1="250.0" x2="316.6666666666667" y2="275.0"/>
<line x1="316.6666666666667" y1="275.0" x2="316.6666666666667" y2="300.0"/>
<line x1="316.6666666666667" y1="300.0" x2="316.6666666666667" y2="325.0"/>
<line x1="316.6666666666667" y1="325.0" x2="316.6666666666667" y2="350.0"/>
<line x1="300.0" y1="375.0" x2="316.6666666666667" y2="375.0"/>
<line x1="300.0" y1="425.0" x2="316.6666666666667" y2="425.0"/>
<line x1="316.6666666666667" y1="400.0" x2="316.6666666666667" y2="425.0"/>
<line x1="316.6666666666667" y1="425.0" x2="316.6666666666667" y2="450.0"/>
<line x1="300.0" y1="475.0" x2="316.6666666666667" y2="475.0"/>
<line x1="316.6666666666667" y1="25.0" x2="333.33333333333337" y2="25.0"/>
<line x1="333.33333333333337" y1="0.0" x2="333.33333333333337" y2="25.0"/>
<line x1="316.6666666666667" y1="50.0" x2="333.33333333333337" y2="50.0"/>
<line x1="316.6666666666667" y1="75.0" x2="333.33333333333337" y2="75.0"/>
<line x1="316.6666666666667" y1="100.0" x2="333.33333333333337" y2="100.0"/>
<line x1="316.6666666666667" y1="125.0" x2="333.33333333333337" y2="125.0"/>
<line x1="333.33333333333337" y1="125.0" x2="333.33333333333337" y2="150.0"/>
<line x1="333.33333333333337" y1="150.0" x2="333.33333333333337" y2="175.0"/>
<line x1="316.6666666666667" y1="200.0" x2="333.33333333333337" y2="200.0"/>
<line x1="333.33333333333337" y1="175.0" x2="333.33333333333337" y2="200.0"/>
<line x1="333.33333333333337" y1="200.0" x2="333.33333333333337" y2="225.0"/>
<line x1="316.6666666666667" y1="250.0" x2="333.33333333333337" y2="250.0"/>
<line x1="333.33333333333337" y1="225.0" x2="333.33333333333337" y2="250.0"/>
<line x1="333.33333333333337" y1="250.0" x2="333.33333333333337" y2="275.0"/>
<line x1="333.33333333333337" y1="275.0" x2="333.33333333333337" y2="300.0"/>
<line x1="316.6666666666667" y1="325.0" x2="333.33333333333337" y2="325.0"/>
<line x1="316.6666666666667" y1="375.0" x2="333.33333333333337" y2="375.0"/>
<line x1="333.33333333333337" y1="350.0" x2="333.33333333333337" y2="375.0"/>
<line x1="333.33333333333337" y1="375.0" x2="333.33333333333337" y2="400.0"/>
<line x1="333.33333333333337" y1="400.0" x2="333.33333333333337" y2="425.0"/>
<line x1="316.6666666666667" y1="450.0" x2="333.33333333333337" y2="450.0"/>
<line x1="333.33333333333337" y1="475.0" x2="333.33333333333337" y2="500.0"/>
<line x1="333.33333333333337" y1="50.0" x2="350.0" y2="50.0"/>
<line x1="350.0" y1="25.0" x2="350.0" y2="50.0"/>
<line x1="333.33333333333337" y1="75.0" x2="350.0" y2="75.0"/>
<line x1="333.33333333333337" y1="100.0" x2="350.0" y2="100.0"/>
<line x1="333.33333333333337" y1="125.0" x2="350.0" y2="125.0"/>
<line x1="333.33333333333337" y1="175.0" x2="350.0" y2="175.0"/>
<line x1="333.33333333333337" y1="200.0" x2="350.0" y2="200.0"/>
<line x1="350.0" y1="250.0" x2="350.0" y2="275.0"/>
<line x1="350.0" y1="275.0" x2="350.0" y2="300.0"/>
<line x1="333.33333333333337" y1="325.0" x2="350.0" y2="325.0"/>
<line x1="333.33333333333337" y1="350.0" x2="350.0" y2="350.0"/>
<line x1="350.0" y1="350.0" x2="350.0" y2="375.0"/>
<line x1="333.33333333333337" y1="400.0" x2="350.0" y2="400.0"/>
<line x1="333.33333333333337" y1="450.0" x2="350.0" y2="450.0"/>
<line x1="350.0" y1="425.0" x2="350.0" y2="450.0"/>
<line x1="333.33333333333337" y1="475.0" x2="350.0" y2="475.0"/>
<line x1="350.0" y1="450.0" x2="350.0" y2="475.0"/>
<line x1="366.6666666666667" y1="0.0" x2="366.6666666666667" y2="25.0"/>
<line x1="350.0" y1="50.0" x2="366.6666666666667" y2="50.0"/>
<line x1="350.0" y1="75.0" x2="366.6666666666667" y2="75.0"/>
<line x1="350.0" y1="100.0" x2="366.6666666666667" y2="100.0"/>
<line x1="366.6666666666667" y1="100.0" x2="366.6666666666667" y2="125.0"/>
<line x1="350.0" y1="150.0" x2="366.6666666666667" y2="150.0"/>
<line x1="366.6666666666667" y1="125.0" x2="366.6666666666667" y2="150.0"/>
<line x1="350.0" y1="175.0" x2="366.6666666666667" y2="175.0"/>
<line x1="350.0" y1="225.0" x2="366.6666666666667" y2="225.0"/>
<line x1="366.6666666666667" y1="200.0" x2="366.6666666666667" y2="225.0"/>
<line x1="350.0" y1="250.0" x2="366.6666666666667" y2="250.0"/>
<line x1="350.0" y1="275.0" x2="366.6666666666667" y2="275.0"/>
<line x1="350.0" y1="325.0" x2="366.6666666666667" y2="325.0"/>
<line x1="366.6666666666667" y1="300.0" x2="366.6666666666667" y2="325.0"/>
<line x1="366.6666666666667" y1="325.0" x2="366.6666666666667" y2="350.0"/>
<line x1="350.0" y1="400.0" x2="366.6666666666667" y2="400.0"/>
<line x1="366.6666666666667" y1="375.0" x2="366.6666666666667" y2="400.0"/>
<line x1="366.6666666666667" y1="400.0" x2="366.6666666666667" y2="425.0"/>
<line x1="350.0" y1="450.0" x2="366.6666666666667" y2="450.0"/>
<line x1="350.0" y1="500.0" x2="366.6666666666667" y2="500.0"/>
<line x1="366.6666666666667" y1="475.0" x2="366.6666666666667" y2="500.0"/>
<line x1="366.6666666666667" y1="50.0" x2="383.33333333333337" y2="50.0"/>
<line x1="383.33333333333337" y1="25.0" x2="383.33333333333337" y2="50.0"/>
<line x1="383.33333333333337" y1="50.0" x2="383.33333333333337" y2="75.0"/>
<line x1="383.33333333333337" y1="75.0" x2="383.33333333333337" y2="100.0"/>
<line x1="383.33333333333337" y1="100.0" x2="383.33333333333337" y2="125.0"/>
<line x1="366.6666666666667" y1="150.0" x2="383.33333333333337" y2="150.0"/>
<line x1="366.6666666666667" y1="175.0" x2="383.33333333333337" y2="175.0"/>
<line x1="366.6666666666667" y1="200.0" x2="383.33333333333337" y2="200.0"/>
<line x1="383.33333333333337" y1="175.0" x2="383.33333333333337" y2="200.0"/>
<line x1="366.6666666666667" y1="250.0" x2="383.33333333333337" y2="250.0"/>
<line x1="383.33333333333337" y1="225.0" x2="383.33333333333337" y2="250.0"/>
<line x1="366.6666666666667" y1="275.0" x2="383.33333333333337" y2="275.0"/>
<line x1="366.6666666666667" y1="300.0" x2="383.33333333333337" y2="300.0"/>
<line x1="383.33333333333337" y1="325.0" x2="383.33333333333337" y2="350.0"/>
<line x1="366.6666666666667" y1="375.0" x2="383.33333333333337" y2="375.0"/>
<line x1="383.33333333333337" y1="350.0" x2="383.33333333333337" y2="375.0"/>
<line x1="383.33333333333337" y1="400.0" x2="383.33333333333337" y2="425.0"/>
<line x1="366.6666666666667" y1="450.0" x2="383.33333333333337" y2="450.0"/>
<line x1="383.33333333333337" y1="425.0" x2="383.33333333333337" y2="450.0"/>
<line x1="366.6666666666667" y1="475.0" x2="383.33333333333337" y2="475.0"/>
<line x1="383.33333333333337" y1="475.0" x2="383.33333333333337" y2="500.0"/>
<line x1="383.33333333333337" y1="25.0" x2="400.0" y2="25.0"/>
<line x1="400.0" y1="50.0" x2="400.0" y2="75.0"/>
<line x1="383.33333333333337" y1="100.0" x2="400.0" y2="100.0"/>
<line x1="400.0" y1="100.0" x2="400.0" y2="125.0"/>
<line x1="383.33333333333337" y1="150.0" x2="400.0" y2="150.0"/>
<line x1="400.0" y1="125.0" x2="400.0" y2="150.0"/>
<line x1="400.0" y1="150.0" x2="400.0" y2="175.0"/>
<line x1="383.33333333333337" y1="200.0" x2="400.0" y2="200.0"/>
<line x1="400.0" y1="200.0" x2="400.0" y2="225.0"/>
<line x1="383.33333333333337" y1="250.0" x2="400.0" y2="250.0"/>
<line x1="400.0" y1="250.0" x2="400.0" y2="275.0"/>
<line x1="383.33333333333337" y1="300.0" x2="400.0" y2="300.0"/>
<line x1="400.0" y1="275.0" x2="400.0" y2="300.0"/>
<line x1="383.33333333333337" y1="325.0" x2="400.0" y2="325.0"/>
<line x1="383.33333333333337" y1="375.0" x2="400.0" y2="375.0"/>
<line x1="383.33333333333337" y1="400.0" x2="400.0" y2="400.0"/>
<line x1="400.0" y1="425.0" x2="400.0" y2="450.0"/>
<line x1="400.0" y1="450.0" x2="400.0" y2="475.0"/>
<line x1="383.33333333333337" y1="500.0" x2="400.0" y2="500.0"/>
<line x1="416.6666666666667" y1="25.0" x2="416.6666666666667" y2="50.0"/>
<line x1="400.0" y1="75.0" x2="416.6666666666667" y2="75.0"/>
<line x1="416.6666666666667" y1="50.0" x2="416.6666666666667" y2="75.0"/>
<line x1="400.0" y1="100.0" x2="416.6666666666667" y2="100.0"/>
<line x1="416.6666666666667" y1="125.0" x2="416.6666666666667" y2="150.0"/>
<line x1="400.0" y1="175.0" x2="416.6666666666667" y2="175.0"/>
<line x1="400.0" y1="200.0" x2="416.6666666666667" y2="200.0"/>
<line x1="400.0" y1="250.0" x2="416.6666666666667" y2="250.0"/>
<line x1="416.6666666666667" y1="225.0" x2="416.6666666666667" y2="250.0"/>
<line x1="400.0" y1="300.0" x2="416.6666666666667" y2="300.0"/>
<line x1="400.0" y1="325.0" x2="416.6666666666667" y2="325.0"/>
<line x1="400.0" y1="350.0" x2="416.6666666666667" y2="350.0"/>
<line x1="416.6666666666667" y1="325.0" x2="416.6666666666667" y2="350.0"/>
<line x1="400.0" y1="375.0" x2="416.6666666666667" y2="375.0"/>
<line x1="400.0" y1="400.0" x2="416.6666666666667" y2="400.0"/>
<line x1="416.6666666666667" y1="425.0" x2="416.6666666666667" y2="450.0"/>
<line x1="400.0" y1="475.0" x2="416.6666666666667" y2="475.0"/>
<line x1="416.6666666666667" y1="450.0" x2="416.6666666666667" y2="475.0"/>
<line x1="416.6666666666667" y1="475.0" x2="416.6666666666667" y2="500.0"/>
<line x1="433.33333333333337" y1="0.0" x2="433.33333333333337" y2="25.0"/>
<line x1="416.6666666666667" y1="50.0" x2="433.33333333333337" y2="50.0"/>
<line x1="433.33333333333337" y1="25.0" x2="433.33333333333337" y2="50.0"/>
<line x1="416.6666666666667" y1="100.0" x2="433.33333333333337" y2="100.0"/>
<line x1="416.6666666666667" y1="125.0" x2="433.33333333333337" y2="125.0"/>
<line x1="416.6666666666667" y1="150.0" x2="433.33333333333337" y2="150.0"/>
<line x1="433.33333333333337" y1="150.0" x2="433.33333333333337" y2="175.0"/>
<line x1="416.6666666666667" y1="200.0" x2="433.33333333333337" y2="200.0"/>
<line x1="433.33333333333337" y1="175.0" x2="433.33333333333337" y2="200.0"/>
<line x1="433.33333333333337" y1="225.0" x2="433.33333333333337" y2="250.0"/>
<line x1="416.6666666666667" y1="275.0" x2="433.33333333333337" y2="275.0"/>
<line x1="433.33333333333337" y1="250.0" x2="433.33333333333337" y2="275.0"/>
<line x1="416.6666666666667" y1="300.0" x2="433.33333333333337" y2="300.0"/>
<line x1="433.33333333333337" y1="300.0" x2="433.33333333333337" y2="325.0"/>
<line x1="433.33333333333337" y1="325.0" x2="433.33333333333337" y2="350.0"/>
<line x1="416.6666666666667" y1="375.0" x2="433.33333333333337" y2="375.0"/>
<line x1="416.6666666666667" y1="400.0" x2="433.33333333333337" y2="400.0"/>
<line x1="416.6666666666667" y1="425.0" x2="433.33333333333337" y2="425.0"/>
<line x1="433.33333333333337" y1="400.0" x2="433.33333333333337" y2="425.0"/>
<line x1="433.33333333333337" y1="450.0" x2="433.33333333333337" y2="475.0"/>
<line x1="433.33333333333337" y1="475.0" x2="433.33333333333337" y2="500.0"/>
<line x1="450.00000000000006" y1="25.0" x2="450.00000000000006" y2="50.0"/>
<line x1="433.33333333333337" y1="75.0" x2="450.00000000000006" y2="75.0"/>
<line x1="433.33333333333337" y1="100.0" x2="450.00000000000006" y2="100.0"/>
<line x1="450.00000000000006" y1="75.0" x2="450.00000000000006" y2="100.0"/>
<line x1="433.33333333333337" y1="125.0" x2="450.00000000000006" y2="125.0"/>
<line x1="433.33333333333337" y1="175.0" x2="450.00000000000006" y2="175.0"/>
<line x1="450.00000000000006" y1="150.0" x2="450.00000000000006" y2="175.0"/>
<line x1="433.33333333333337" y1="225.0" x2="450.00000000000006" y2="225.0"/>
<line x1="450.00000000000006" y1="200.0" x2="450.00000000000006" y2="225.0"/>
<line x1="433.33333333333337" y1="275.0" x2="450.00000000000006" y2="275.0"/>
<line x1="450.00000000000006" y1="250.0" x2="450.00000000000006" y2="275.0"/>
<line x1="450.00000000000006" y1="275.0" x2="450.00000000000006" y2="300.0"/>
<line x1="433.33333333333337" y1="325.0" x2="450.00000000000006" y2="325.0"/>
<line x1="433.33333333333337" y1="375.0" x2="450.00000000000006" y2="375.0"/>
<line x1="450.00000000000006" y1="350.0" x2="450.00000000000006" y2="375.0"/>
<line x1="433.33333333333337" y1="400.0" x2="450.00000000000006" y2="400.0"/>
<line x1="433.33333333333337" y1="450.0" x2="450.00000000000006" y2="450.0"/>
<line x1="450.00000000000006" y1="425.0" x2="450.00000000000006" y2="450.0"/>
<line x1="450.00000000000006" y1="450.0" x2="450.00000000000006" y2="475.0"/>
<line x1="450.00000000000006" y1="475.0" x2="450.00000000000006" y2="500.0"/>
<line x1="450.00000000000006" y1="25.0" x2="466.6666666666667" y2="25.0"/>
<line x1="466.6666666666667" y1="25.0" x2="466.6666666666667" y2="50.0"/>
<line x1="450.00000000000006" y1="75.0" x2="466.6666666666667" y2="75.0"/>
<line x1="450.00000000000006" y1="125.0" x2="466.6666666666667" y2="125.0"/>
<line x1="466.6666666666667" y1="100.0" x2="466.6666666666667" y2="125.0"/>
<line x1="450.00000000000006" y1="175.0" x2="466.6666666666667" y2="175.0"/>
<line x1="450.00000000000006" y1="200.0" x2="466.6666666666667" y2="200.0"/>
<line x1="450.00000000000006" y1="250.0" x2="466.6666666666667" y2="250.0"/>
<line x1="466.6666666666667" y1="225.0" x2="466.6666666666667" y2="250.0"/>
<line x1="466.6666666666667" y1="275.0" x2="466.6666666666667" y2="300.0"/>
<line x1="450.00000000000006" y1="325.0" x2="466.6666666666667" y2="325.0"/>
<line x1="466.6666666666667" y1="300.0" x2="466.6666666666667" y2="325.0"/>
<line x1="450.00000000000006" y1="350.0" x2="466.6666666666667" y2="350.0"/>
<line x1="450.00000000000006" y1="375.0" x2="466.6666666666667" y2="375.0"/>
<line x1="450.00000000000006" y1="400.0" x2="466.6666666666667" y2="400.0"/>
<line x1="450.00000000000006" y1="450.0" x2="466.6666666666667" y2="450.0"/>
<line x1="466.6666666666667" y1="475.0" x2="466.6666666666667" y2="500.0"/>
<line x1="466.6666666666667" y1="50.0" x2="483.33333333333337" y2="50.0"/>
<line x1="466.6666666666667" y1="75.0" x2="483.33333333333337" y2="75.0"/>
<line x1="483.33333333333337" y1="50.0" x2="483.33333333333337" y2="75.0"/>
<line x1="466.6666666666667" y1="100.0" x2="483.33333333333337" y2="100.0"/>
<line x1="466.6666666666667" y1="150.0" x2="483.33333333333337" y2="150.0"/>
<line x1="483.33333333333337" y1="125.0" x2="483.33333333333337" y2="150.0"/>
<line x1="483.33333333333337" y1="150.0" x2="483.33333333333337" y2="175.0"/>
<line x1="466.6666666666667" y1="200.0" x2="483.33333333333337" y2="200.0"/>
<line x1="483.33333333333337" y1="175.0" x2="483.33333333333337" y2="200.0"/>
<line x1="483.33333333333337" y1="200.0" x2="483.33333333333337" y2="225.0"/>
<line x1="466.6666666666667" y1="250.0" x2="483.33333333333337" y2="250.0"/>
<line x1="483.33333333333337" y1="250.0" x2="483.33333333333337" y2="275.0"/>
<line x1="483.33333333333337" y1="275.0" x2="483.33333333333337" y2="300.0"/>
<line x1="483.33333333333337" y1="325.0" x2="483.33333333333337" y2="350.0"/>
<line x1="466.6666666666667" y1="375.0" x2="483.33333333333337" y2="375.0"/>
<line x1="483.33333333333337" y1="350.0" x2="483.33333333333337" y2="375.0"/>
<line x1="466.6666666666667" y1="400.0" x2="483.33333333333337" y2="400.0"/>
<line x1="466.6666666666667" y1="425.0" x2="483.33333333333337" y2="425.0"/>
<line x1="483.33333333333337" y1="425.0" x2="483.33333333333337" y2="450.0"/>
<line x1="466.6666666666667" y1="475.0" x2="483.33333333333337" y2="475.0"/>
<line x1="483.33333333333337" y1="450.0" x2="483.33333333333337" y2="475.0"/>
<line x1="483.33333333333337" y1="25.0" x2="500.00000000000006" y2="25.0"/>
<line x1="500.00000000000006" y1="25.0" x2="500.00000000000006" y2="50.0"/>
<line x1="500.00000000000006" y1="50.0" x2="500.00000000000006" y2="75.0"/>
<line x1="483.33333333333337" y1="100.0" x2="500.00000000000006" y2="100.0"/>
<line x1="500.00000000000006" y1="75.0" x2="500.00000000000006" y2="100.0"/>
<line x1="483.33333333333337" y1="125.0" x2="500.00000000000006" y2="125.0"/>
<line x1="483.33333333333337" y1="200.0" x2="500.00000000000006" y2="200.0"/>
<line x1="483.33333333333337" y1="250.0" x2="500.00000000000006" y2="250.0"/>
<line x1="500.00000000000006" y1="225.0" x2="500.00000000000006" y2="250.0"/>
<line x1="483.33333333333337" y1="300.0" x2="500.00000000000006" y2="300.0"/>
<line x1="483.33333333333337" y1="325.0" x2="500.00000000000006" y2="325.0"/>
<line x1="500.00000000000006" y1="350.0" x2="500.00000000000006" y2="375.0"/>
<line x1="483.33333333333337" y1="400.0" x2="500.00000000000006" y2="400.0"/>
<line x1="500.00000000000006" y1="375.0" x2="500.00000000000006" y2="400.0"/>
<line x1="483.33333333333337" y1="425.0" x2="500.00000000000006" y2="425.0"/>
<line x1="500.00000000000006" y1="450.0" x2="500.00000000000006" y2="475.0"/>
<line x1="483.33333333333337" y1="500.0" x2="500.00000000000006" y2="500.0"/>
<line x1="500.00000000000006" y1="475.0" x2="500.00000000000006" y2="500.0"/>
<circle cx="58.333333333333336" cy="658.3333333333334" r="2" stroke="black" stroke-width="0.1" fill="magenta" />
<circle cx="58.333333333333336" cy="641.6666666666667" r="2" stroke="black" stroke-width="0.1" fill="magenta" />
<circle cx="75.0" cy="641.6666666666667" r="2" stroke="black" stroke-width="0.1" fill="magenta" />
<circle cx="75.0" cy="658.3333333333334" r="2" stroke="black" stroke-width="0.1" fill="magenta" />
<circle cx="91.66666666666667" cy="658.3333333333334" r="2" stroke="black" stroke-width="0.1" fill="magenta" />
<circle cx="91.66666666666667" cy="641.6666666666667" r="2" stroke="black" stroke-width="0.1" fill="magenta" />
<circle cx="108.33333333333333" cy="641.6666666666667" r="2" stroke="black" stroke-width="0.1" fill="magenta" />
<circle cx="108.33333333333333" cy="658.3333333333334" r="2" stroke="black" stroke-width="0.1" fill="magenta" />
<circle cx="125.0" cy="658.3333333333334" r="2" stroke="black" stroke-width="0.1" fill="magenta" />
<circle cx="125.0" cy="641.6666666666667" r="2" stroke="black" stroke-width="0.1" fill="magenta" />
<circle cx="125.0" cy="625.0000000000001" r="2" stroke="black" stroke-width="0.1" fill="magenta" />
<circle cx="125.0" cy="608.3333333333334" r="2" stroke="black" stroke-width="0.1" fill="magenta" />
<circle cx="125.0" cy="591.6666666666667" r="2" stroke="black" stroke-width="0.1" fill="magenta" />
<circle cx="108.33333333333333" cy="591.6666666666667" r="2" stroke="black" stroke-width="0.1" fill="magenta" />
<circle cx="108.33333333333333" cy="608.3333333333334" r="2" stroke="black" stroke-width="0.1" fill="magenta" />
<circle cx="108.33333333333333" cy="625.0000000000001" r="2" stroke="black" stroke-width="0.1" fill="magenta" />
<circle cx="91.66666666666667" cy="625.0000000000001" r="2" stroke="black" stroke-width="0.1" fill="magenta" />
<circle cx="91.66666666666667" cy="608.3333333333334" r="2" stroke="black" stroke-width="0.1" fill="magenta" />
<circle cx="91.66666666666667" cy="591.6666666666667" r="2" stroke="black" stroke-width="0.1" fill="magenta" />
<circle cx="91.66666666666667" cy="575.0000000000001" r="2" stroke="black" stroke-width="0.1" fill="magenta" />
<circle cx="75.0" cy="575.0000000000001" r="2" stroke="black" stroke-width="0.1" fill="magenta" />
<circle cx="58.333333333333336" cy="575.0000000000001" r="2" stroke="black" stroke-width="0.1" fill="magenta" />
<circle cx="58.333333333333336" cy="558.3333333333334" r="2" stroke="black" stroke-width="0.1" fill="magenta" />
<circle cx="75.0" cy="558.3333333333334" r="2" stroke="black" stroke-width="0.1" fill="magenta" />
<circle cx="91.66666666666667" cy="558.3333333333334" r="2" stroke="black" stroke-width="0.1" fill="magenta" />
<circle cx="108.33333333333333" cy="558.3333333333334" r="2" stroke="black" stroke-width="0.1" fill="magenta" />
<circle cx="125.0" cy="558.3333333333334" r="2" stroke="black" stroke-width="0.1" fill="magenta" />
<circle cx="125.0" cy="541.6666666666667" r="2" stroke="black" stroke-width="0.1" fill="magenta" />
<circle cx="141.66666666666669" cy="541.6666666666667" r="2" stroke="black" stroke-width="0.1" fill="magenta" />
<circle cx="158.33333333333334" cy="541.6666666666667" r="2" stroke="black" stroke-width="0.1" fill="magenta" />
<circle cx="158.33333333333334" cy="558.3333333333334" r="2" stroke="black" stroke-width="0.1" fill="magenta" />
<circle cx="175.00000000000003" cy="558.3333333333334" r="2" stroke="black" stroke-width="0.1" fill="magenta" />
<circle cx="175.00000000000003" cy="541.6666666666667" r="2" stroke="black" stroke-width="0.1" fill="magenta" />
<circle cx="175.00000000000003" cy="525.0000000000001" r="2" stroke="black" stroke-width="0.1" fill="magenta" />
<circle cx="158.33333333333334" cy="525.0000000000001" r="2" stroke="black" stroke-width="0.1" fill="magenta" />
<circle cx="158.33333333333334" cy="508.33333333333337" r="2" stroke="black" stroke-width="0.1" fill="magenta" />
<circle cx="175.00000000000003" cy="508.33333333333337" r="2" stroke="black" stroke-width="0.1" fill="magenta" />
<circle cx="175.00000000000003" cy="491.6666666666667" r="2" stroke="black" stroke-width="0.1" fill="magenta" />
<circle cx="191.66666666666669" cy="491.6666666666667" r="2" stroke="black" stroke-width="0.1" fill="magenta" />
<circle cx="191.66666666666669" cy="508.33333333333337" r="2" stroke="black" stroke-width="0.1" fill="magenta" />
<circle cx="208.33333333333334" cy="508.33333333333337" r="2" stroke="black" stroke-width="0.1" fill="magenta" />
<circle cx="208.33333333333334" cy="525.0000000000001" r="2" stroke="black" stroke-width="0.1" fill="magenta" />
<circle cx="208.33333333333334" cy="541.6666666666667" r="2" stroke="black" stroke-width="0.1" fill="magenta" />
<circle cx="225.00000000000003" cy="541.6666666666667" r="2" stroke="black" stroke-width="0.1" fill="magenta" />
<circle cx="225.00000000000003" cy="525.0000000000001" r="2" stroke="black" stroke-width="0.1" fill="magenta" />
<circle cx="225.00000000000003" cy="508.33333333333337" r="2" stroke="black" stroke-width="0.1" fill="magenta" />
<circle cx="241.66666666666669" cy="508.33333333333337" r="2" stroke="black" stroke-width="0.1" fill="magenta" />
<circle cx="258.33333333333337" cy="508.33333333333337" r="2" stroke="black" stroke-width="0.1" fill="magenta" />
<circle cx="275.0" cy="508.33333333333337" r="2" stroke="black" stroke-width="0.1" fill="magenta" />
<circle cx="275.0" cy="525.0000000000001" r="2" stroke="black" stroke-width="0.1" fill="magenta" />
<circle cx="291.6666666666667" cy="525.0000000000001" r="2" stroke="black" stroke-width="0.1" fill="magenta" />
<circle cx="308.3333333333333" cy="525.0000000000001" r="2" stroke="black" stroke-width="0.1" fill="magenta" />
<circle cx="325.0" cy="525.0000000000001" r="2" stroke="black" stroke-width="0.1" fill="magenta" />
<circle cx="341.6666666666667" cy="525.0000000000001" r="2" stroke="black" stroke-width="0.1" fill="magenta" />
<circle cx="358.3333333333333" cy="525.0000000000001" r="2" stroke="black" stroke-width="0.1" fill="magenta" />
<circle cx="358.3333333333333" cy="508.33333333333337" r="2" stroke="black" stroke-width="0.1" fill="magenta" />
<circle cx="375.0" cy="508.33333333333337" r="2" stroke="black" stroke-width="0.1" fill="magenta" />
<circle cx="375.0" cy="491.6666666666667" r="2" stroke="black" stroke-width="0.1" fill="magenta" />
<circle cx="375.0" cy="475.0" r="2" stroke="black" stroke-width="0.1" fill="magenta" />
<circle cx="375.0" cy="458.33333333333337" r="2" stroke="black" stroke-width="0.1" fill="magenta" />
<circle cx="391.6666666666667" cy="458.33333333333337" r="2" stroke="black" stroke-width="0.1" fill="magenta" />
<circle cx="408.3333333333333" cy="458.33333333333337" r="2" stroke="black" stroke-width="0.1" fill="magenta" />
<circle cx="425.0" cy="458.33333333333337" r="2" stroke="black" stroke-width="0.1" fill="magenta" />
<circle cx="425.0" cy="475.0" r="2" stroke="black" stroke-width="0.1" fill="magenta" />
<circle cx="441.6666666666667" cy="475.0" r="2" stroke="black" stroke-width="0.1" fill="magenta" />
<circle cx="441.6666666666667" cy="491.6666666666667" r="2" stroke="black" stroke-width="0.1" fill="magenta" />
<circle cx="458.33333333333337" cy="491.6666666666667" r="2" stroke="black" stroke-width="0.1" fill="magenta" />
<circle cx="458.33333333333337" cy="508.33333333333337" r="2" stroke="black" stroke-width="0.1" fill="magenta" />
<circle cx="458.33333333333337" cy="525.0000000000001" r="2" stroke="black" stroke-width="0.1" fill="magenta" />
<circle cx="458.33333333333337" cy="541.6666666666667" r="2" stroke="black" stroke-width="0.1" fill="magenta" />
<circle cx="458.33333333333337" cy="558.3333333333334" r="2" stroke="black" stroke-width="0.1" fill="magenta" />
<circle cx="441.6666666666667" cy="558.3333333333334" r="2" stroke="black" stroke-width="0.1" fill="magenta" />
<circle cx="441.6666666666667" cy="575.0000000000001" r="2" stroke="black" stroke-width="0.1" fill="magenta" />
<circle cx="458.33333333333337" cy="575.0000000000001" r="2" stroke="black" stroke-width="0.1" fill="magenta" />
<circle cx="475.0" cy="575.0000000000001" r="2" stroke="black" stroke-width="0.1" fill="magenta" />
<circle cx="475.0" cy="558.3333333333334" r="2" stroke="black" stroke-width="0.1" fill="magenta" />
<circle cx="491.6666666666667" cy="558.3333333333334" r="2" stroke="black" stroke-width="0.1" fill="magenta" />
<circle cx="491.6666666666667" cy="541.6666666666667" r="2" stroke="black" stroke-width="0.1" fill="magenta" />
<circle cx="491.6666666666667" cy="525.0000000000001" r="2" stroke="black" stroke-width="0.1" fill="magenta" />
<circle cx="491.6666666666667" cy="508.33333333333337" r="2" stroke="black" stroke-width="0.1" fill="magenta" />
<circle cx="475.0" cy="508.33333333333337" r="2" stroke="black" stroke-width="0.1" fill="magenta" />
<circle cx="475.0" cy="491.6666666666667" r="2" stroke="black" stroke-width="0.1" fill="magenta" />
<circle cx="491.6666666666667" cy="491.6666666666667" r="2" stroke="black" stroke-width="0.1" fill="magenta" />
<circle cx="491.6666666666667" cy="475.0" r="2" stroke="black" stroke-width="0.1" fill="magenta" />
<circle cx="491.6666666666667" cy="458.33333333333337" r="2" stroke="black" stroke-width="0.1" fill="magenta" />
<circle cx="508.33333333333337" cy="458.33333333333337" r="2" stroke="black" stroke-width="0.1" fill="magenta" />
<circle cx="508.33333333333337" cy="475.0" r="2" stroke="black" stroke-width="0.1" fill="magenta" />
<circle cx="525.0000000000001" cy="475.0" r="2" stroke="black" stroke-width="0.1" fill="magenta" />
<circle cx="525.0000000000001" cy="491.6666666666667" r="2" stroke="black" stroke-width="0.1" fill="magenta" />
<circle cx="541.6666666666667" cy="491.6666666666667" r="2" stroke="black" stroke-width="0.1" fill="magenta" />
<circle cx="541.6666666666667" cy="475.0" r="2" stroke="black" stroke-width="0.1" fill="magenta" />
<circle cx="541.6666666666667" cy="458.33333333333337" r="2" stroke="black" stroke-width="0.1" fill="magenta" />
<circle cx="525.0000000000001" cy="458.33333333333337" r="2" stroke="black" stroke-width="0.1" fill="magenta" />
<circle cx="525.0000000000001" cy="441.6666666666667" r="2" stroke="black" stroke-width="0.1" fill="magenta" />
<circle cx="525.0000000000001" cy="425.0" r="2" stroke="black" stroke-width="0.1" fill="magenta" />
<circle cx="525.0000000000001" cy="408.3333333333333" r="2" stroke="black" stroke-width="0.1" fill="magenta" />
<circle cx="508.33333333333337" cy="408.3333333333333" r="2" stroke="black" stroke-width="0.1" fill="magenta" />
<circle cx="508.33333333333337" cy="391.6666666666667" r="2" stroke="black" stroke-width="0.1" fill="magenta" />
<circle cx="508.33333333333337" cy="375.0" r="2" stroke="black" stroke-width="0.1" fill="magenta" />
<circle cx="525.0000000000001" cy="375.0" r="2" stroke="black" stroke-width="0.1" fill="magenta" />
<circle cx="541.6666666666667" cy="375.0" r="2" stroke="black" stroke-width="0.1" fill="magenta" />
<circle cx="541.6666666666667" cy="391.6666666666667" r="2" stroke="black" stroke-width="0.1" fill="magenta" />
<circle cx="541.6666666666667" cy="408.3333333333333" r="2" stroke="black" stroke-width="0.1" fill="magenta" />
<circle cx="541.6666666666667" cy="425.0" r="2" stroke="black" stroke-width="0.1" fill="magenta" />
<circle cx="541.6666666666667" cy="441.6666666666667" r="2" stroke="black" stroke-width="0.1" fill="magenta" />
<circle cx="558.3333333333334" cy="441.6666666666667" r="2" stroke="black" stroke-width="0.1" fill="magenta" />
<circle cx="558.3333333333334" cy="458.33333333333337" r="2" stroke="black" stroke-width="0.1" fill="magenta" />
<circle cx="558.3333333333334" cy="475.0" r="2" stroke="black" stroke-width="0.1" fill="magenta" />
<circle cx="558.3333333333334" cy="491.6666666666667" r="2" stroke="black" stroke-width="0.1" fill="magenta" />
<circle cx="575.0000000000001" cy="491.6666666666667" r="2" stroke="black" stroke-width="0.1" fill="magenta" />
<circle cx="575.0000000000001" cy="508.33333333333337" r="2" stroke="black" stroke-width="0.1" fill="magenta" />
<circle cx="575.0000000000001" cy="525.0000000000001" r="2" stroke="black" stroke-width="0.1" fill="magenta" />
<circle cx="591.6666666666667" cy="525.0000000000001" r="2" stroke="black" stroke-width="0.1" fill="magenta" />
<circle cx="591.6666666666667" cy="508.33333333333337" r="2" stroke="black" stroke-width="0.1" fill="magenta" />
<circle cx="608.3333333333334" cy="508.33333333333337" r="2" stroke="black" stroke-width="0.1" fill="magenta" />
<circle cx="608.3333333333334" cy="491.6666666666667" r="2" stroke="black" stroke-width="0.1" fill="magenta" />
<circle cx="625.0000000000001" cy="491.6666666666667" r="2" stroke="black" stroke-width="0.1" fill="magenta" />
<circle cx="625.0000000000001" cy="475.0" r="2" stroke="black" stroke-width="0.1" fill="magenta" />
<circle cx="608.3333333333334" cy="475.0" r="2" stroke="black" stroke-width="0.1" fill="magenta" />
<circle cx="608.3333333333334" cy="458.33333333333337" r="2" stroke="black" stroke-width="0.1" fill="magenta" />
<circle cx="625.0000000000001" cy="458.33333333333337" r="2" stroke="black" stroke-width="0.1" fill="magenta" />
<circle cx="641.6666666666667" cy="458.33333333333337" r="2" stroke="black" stroke-width="0.1" fill="magenta" />
<circle cx="658.3333333333334" cy="458.33333333333337" r="2" stroke="black" stroke-width="0.1" fill="magenta" />
<circle cx="658.3333333333334" cy="441.6666666666667" r="2" stroke="black" stroke-width="0.1" fill="magenta" />
<circle cx="641.6666666666667" cy="441.6666666666667" r="2" stroke="black" stroke-width="0.1" fill="magenta" />
<circle cx="641.6666666666667" cy="425.0" r="2" stroke="black" stroke-width="0.1" fill="magenta" />
<circle cx="658.3333333333334" cy="425.0" r="2" stroke="black" stroke-width="0.1" fill="magenta" />
<circle cx="658.3333333333334" cy="408.3333333333333" r="2" stroke="black" stroke-width="0.1" fill="magenta" />
<circle cx="641.6666666666667" cy="408.3333333333333" r="2" stroke="black" stroke-width="0.1" fill="magenta" />
<circle cx="641.6666666666667" cy="391.6666666666667" r="2" stroke="black" stroke-width="0.1" fill="magenta" />
<circle cx="641.6666666666667" cy="375.0" r="2" stroke="black" stroke-width="0.1" fill="magenta" />
<circle cx="641.6666666666667" cy="358.3333333333333" r="2" stroke="black" stroke-width="0.1" fill="magenta" />
<circle cx="658.3333333333334" cy="358.3333333333333" r="2" stroke="black" stroke-width="0.1" fill="magenta" />
<circle cx="658.3333333333334" cy="341.6666666666667" r="2" stroke="black" stroke-width="0.1" fill="magenta" />
<circle cx="658.3333333333334" cy="325.0" r="2" stroke="black" stroke-width="0.1" fill="magenta" />
<circle cx="658.3333333333334" cy="308.3333333333333" r="2" stroke="black" stroke-width="0.1" fill="magenta" />
<circle cx="641.6666666666667" cy="308.3333333333333" r="2" stroke="black" stroke-width="0.1" fill="magenta" />
<circle cx="641.6666666666667" cy="325.0" r="2" stroke="black" stroke-width="0.1" fill="magenta" />
<circle cx="625.0000000000001" cy="325.0" r="2" stroke="black" stroke-width="0.1" fill="magenta" />
<circle cx="625.0000000000001" cy="308.3333333333333" r="2" stroke="black" stroke-width="0.1" fill="magenta" />
<circle cx="625.0000000000001" cy="291.6666666666667" r="2" stroke="black" stroke-width="0.1" fill="magenta" />
<circle cx="608.3333333333334" cy="291.6666666666667" r="2" stroke="black" stroke-width="0.1" fill="magenta" />
<circle cx="608.3333333333334" cy="275.0" r="2" stroke="black" stroke-width="0.1" fill="magenta" />
<circle cx="625.0000000000001" cy="275.0" r="2" stroke="black" stroke-width="0.1" fill="magenta" />
<circle cx="625.0000000000001" cy="258.33333333333337" r="2" stroke="black" stroke-width="0.1" fill="magenta" />
<circle cx="641.6666666666667" cy="258.33333333333337" r="2" stroke="black" stroke-width="0.1" fill="magenta" />
<circle cx="641.6666666666667" cy="275.0" r="2" stroke="black" stroke-width="0.1" fill="magenta" />
<circle cx="641.6666666666667" cy="291.6666666666667" r="2" stroke="black" stroke-width="0.1" fill="magenta" />
<circle cx="658.3333333333334" cy="291.6666666666667" r="2" stroke="black" stroke-width="0.1" fill="magenta" />
<circle cx="658.3333333333334" cy="275.0" r="2" stroke="black" stroke-width="0.1" fill="magenta" />
<circle cx="658.3333333333334" cy="258.33333333333337" r="2" stroke="black" stroke-width="0.1" fill="magenta" />
<circle cx="658.3333333333334" cy="241.66666666666669" r="2" stroke="black" stroke-width="0.1" fill="magenta" />
<circle cx="658.3333333333334" cy="225.00000000000003" r="2" stroke="black" stroke-width="0.1" fill="magenta" />
<circle cx="658.3333333333334" cy="208.33333333333334" r="2" stroke="black" stroke-width="0.1" fill="magenta" />
<circle cx="641.6666666666667" cy="208.33333333333334" r="2" stroke="black" stroke-width="0.1" fill="magenta" />
<circle cx="641.6666666666667" cy="191.66666666666669" r="2" stroke="black" stroke-width="0.1" fill="magenta" />
<circle cx="625.0000000000001" cy="191.66666666666669" r="2" stroke="black" stroke-width="0.1" fill="magenta" />
<circle cx="625.0000000000001" cy="175.00000000000003" r="2" stroke="black" stroke-width="0.1" fill="magenta" />
<circle cx="625.0000000000001" cy="158.33333333333334" r="2" stroke="black" stroke-width="0.1" fill="magenta" />
<circle cx="641.6666666666667" cy="158.33333333333334" r="2" stroke="black" stroke-width="0.1" fill="magenta" />
<circle cx="641.6666666666667" cy="175.00000000000003" r="2" stroke="black" stroke-width="0.1" fill="magenta" />
<circle cx="658.3333333333334" cy="175.00000000000003" r="2" stroke="black" stroke-width="0.1" fill="magenta" />
<circle cx="658.3333333333334" cy="158.33333333333334" r="2" stroke="black" stroke-width="0.1" fill="magenta" />
<circle cx="658.3333333333334" cy="141.66666666666669" r="2" stroke="black" stroke-width="0.1" fill="magenta" />
<circle cx="658.3333333333334" cy="125.0" r="2" stroke="black" stroke-width="0.1" fill="magenta" />
<circle cx="658.3333333333334" cy="108.33333333333333" r="2" stroke="black" stroke-width="0.1" fill="magenta" />
<circle cx="658.3333333333334" cy="91.66666666666667" r="2" stroke="black" stroke-width="0.1" fill="magenta" />
<circle cx="658.3333333333334" cy="75.0" r="2" stroke="black" stroke-width="0.1" fill="magenta" />
<circle cx="641.6666666666667" cy="75.0" r="2" stroke="black" stroke-width="0.1" fill="magenta" />
<circle cx="625.0000000000001" cy="75.0" r="2" stroke="black" stroke-width="0.1" fill="magenta" />
<circle cx="625.0000000000001" cy="58.333333333333336" r="2" stroke="black" stroke-width="0.1" fill="magenta" />
<circle cx="641.6666666666667" cy="58.333333333333336" r="2" stroke="black" stroke-width="0.1" fill="magenta" />
<circle cx="641.6666666666667" cy="41.66666666666667" r="2" stroke="black" stroke-width="0.1" fill="magenta" />
<circle cx="641.6666666666667" cy="25.0" r="2" stroke="black" stroke-width="0.1" fill="magenta" />
<circle cx="625.0000000000001" cy="25.0" r="2" stroke="black" stroke-width="0.1" fill="magenta" />
<circle cx="625.0000000000001" cy="41.66666666666667" r="2" stroke="black" stroke-width="0.1" fill="magenta" />
<circle cx="608.3333333333334" cy="41.66666666666667" r="2" stroke="black" stroke-width="0.1" fill="magenta" />
<circle cx="591.6666666666667" cy="41.66666666666667" r="2" stroke="black" stroke-width="0.1" fill="magenta" />
<circle cx="591.6666666666667" cy="25.0" r="2" stroke="black" stroke-width="0.1" fill="magenta" />
<circle cx="575.0000000000001" cy="25.0" r="2" stroke="black" stroke-width="0.1" fill="magenta" />
<circle cx="575.0000000000001" cy="8.333333333333334" r="2" stroke="black" stroke-width="0.1" fill="magenta" />
<circle cx="591.6666666666667" cy="8.333333333333334" r="2" stroke="black" stroke-width="0.1" fill="magenta" />
<circle cx="608.3333333333334" cy="8.333333333333334" r="2" stroke="black" stroke-width="0.1" fill="magenta" />
<circle cx="625.0000000000001" cy="8.333333333333334" r="2" stroke="black" stroke-width="0.1" fill="magenta" />
<circle cx="641.6666666666667" cy="8.333333333333334" r="2" stroke="black" stroke-width="0.1" fill="magenta" />
<circle cx="658.3333333333334" cy="8.333333333333334" r="2" stroke="black" stroke-width="0.1" fill="magenta" />
<circle cx="658.3333333333334" cy="25.0" r="2" stroke="black" stroke-width="0.1" fill="magenta" />
<circle cx="658.3333333333334" cy="41.66666666666667" r="2" stroke="black" stroke-width="0.1" fill="magenta" />
<line x1="0" y1="0" x2="500" y2="0"/>
<line x1="0" y1="0" x2="0" y2="500"/>
</svg>
