<?xml version="1.0" encoding="utf-8"?>
<svg xmlns="http://www.w3.org/2000/svg"
    xmlns:xlink="http://www.w3.org/1999/xlink"
    width="353" height="520" viewBox="-10 -10 353 520">
<defs>
<style type="text/css"><![CDATA[
line {
    stroke: #000000;
    stroke-linecap: square;
    stroke-width: 5;
}
]]></style>
</defs>
<line x1="0.0" y1="16.666666666666668" x2="16.65" y2="16.666666666666668"/>
<line x1="16.65" y1="16.666666666666668" x2="16.65" y2="33.333333333333336"/>
<line x1="16.65" y1="33.333333333333336" x2="16.65" y2="50.0"/>
<line x1="16.65" y1="66.66666666666667" x2="16.65" y2="83.33333333333334"/>
<line x1="0.0" y1="100.0" x2="16.65" y2="100.0"/>
<line x1="16.65" y1="116.66666666666667" x2="16.65" y2="133.33333333333334"/>
<line x1="0.0" y1="150.0" x2="16.65" y2="150.0"/>
<line x1="0.0" y1="183.33333333333334" x2="16.65" y2="183.33333333333334"/>
<line x1="16.65" y1="200.0" x2="16.65" y2="216.66666666666669"/>
<line x1="16.65" y1="233.33333333333334" x2="16.65" y2="250.00000000000003"/>
<line x1="16.65" y1="250.00000000000003" x2="16.65" y2="266.6666666666667"/>
<line x1="0.0" y1="283.33333333333337" x2="16.65" y2="283.33333333333337"/>
<line x1="16.65" y1="283.33333333333337" x2="16.65" y2="300.0"/>
<line x1="16.65" y1="300.0" x2="16.65" y2="316.6666666666667"/>
<line x1="16.65" y1="333.33333333333337" x2="16.65" y2="350.0"/>
<line x1="16.65" y1="350.0" x2="16.65" y2="366.6666666666667"/>
<line x1="0.0" y1="383.33333333333337" x2="16.65" y2="383.33333333333337"/>
<line x1="0.0" y1="416.6666666666667" x2="16.65" y2="416.6666666666667"/>
<line x1="0.0" y1="433.33333333333337" x2="16.65" y2="433.33333333333337"/>
<line x1="16.65" y1="450.00000000000006" x2="16.65" y2="466.6666666666667"/>
<line x1="16.65" y1="466.6666666666667" x2="16.65" y2="483.33333333333337"/>
<line x1="0.0" y1="500.00000000000006" x2="16.65" y2="500.00000000000006"/>
<line x1="33.3" y1="0.0" x2="33.3" y2="16.666666666666668"/>
<line x1="16.65" y1="33.333333333333336" x2="33.3" y2="33.333333333333336"/>
<line x1="16.65" y1="66.66666666666667" x2="33.3" y2="66.66666666666667"/>
<line x1="33.3" y1="50.0" x2="33.3" y2="66.66666666666667"/>
<line x1="16.65" y1="83.33333333333334" x2="33.3" y2="83.33333333333334"/>
<line x1="16.65" y1="100.0" x2="33.3" y2="100.0"/>
<line x1="16.65" y1="133.33333333333334" x2="33.3" y2="133.33333333333334"/>
<line x1="33.3" y1="133.33333333333334" x2="33.3" y2="150.0"/>
<line x1="16.65" y1="166.66666666666669" x2="33.3" y2="166.66666666666669"/>
<line x1="33.3" y1="150.0" x2="33.3" y2="166.66666666666669"/>
<line x1="16.65" y1="183.33333333333334" x2="33.3" y2="183.33333333333334"/>
<line x1="33.3" y1="166.66666666666669" x2="33.3" y2="183.33333333333334"/>
<line x1="33.3" y1="183.33333333333334" x2="33.3" y2="200.0"/>
<line x1="16.65" y1="216.66666666666669" x2="33.3" y2="216.66666666666669"/>
<line x1="33.3" y1="216.66666666666669" x2="33.3" y2="233.33333333333334"/>
<line x1="16.65" y1="250.00000000000003" x2="33.3" y2="250.00000000000003"/>
<line x1="33.3" y1="250.00000000000003" x2="33.3" y2="266.6666666666667"/>
<line x1="33.3" y1="266.6666666666667" x2="33.3" y2="283.33333333333337"/>
<line x1="33.3" y1="283.33333333333337" x2="33.3" y2="300.0"/>
<line x1="16.65" y1="316.6666666666667" x2="33.3" y2="316.6666666666667"/>
<line x1="16.65" y1="333.33333333333337" x2="33.3" y2="333.33333333333337"/>
<line x1="33.3" y1="333.33333333333337" x2="33.3" y2="350.0"/>
<line x1="33.3" y1="350.0" x2="33.3" y2="366.6666666666667"/>
<line x1="33.3" y1="366.6666666666667" x2="33.3" y2="383.33333333333337"/>
<line x1="16.65" y1="400.0" x2="33.3" y2="400.0"/>
<line x1="33.3" y1="383.33333333333337" x2="33.3" y2="400.0"/>
<line x1="16.65" y1="416.6666666666667" x2="33.3" y2="416.6666666666667"/>
<line x1="16.65" y1="450.00000000000006" x2="33.3" y2="450.00000000000006"/>
<line x1="33.3" y1="433.33333333333337" x2="33.3" y2="450.00000000000006"/>
<line x1="16.65" y1="483.33333333333337" x2="33.3" y2="483.33333333333337"/>
<line x1="16.65" y1="500.00000000000006" x2="33.3" y2="500.00000000000006"/>
<line x1="33.3" y1="33.333333333333336" x2="49.949999999999996" y2="33.333333333333336"/>
<line x1="49.949999999999996" y1="16.666666666666668" x2="49.949999999999996" y2="33.333333333333336"/>
<line x1="33.3" y1="50.0" x2="49.949999999999996" y2="50.0"/>
<line x1="49.949999999999996" y1="50.0" x2="49.949999999999996" y2="66.66666666666667"/>
<line x1="33.3" y1="83.33333333333334" x2="49.949999999999996" y2="83.33333333333334"/>
<line x1="49.949999999999996" y1="66.66666666666667" x2="49.949999999999996" y2="83.33333333333334"/>
<line x1="33.3" y1="100.0" x2="49.949999999999996" y2="100.0"/>
<line x1="49.949999999999996" y1="83.33333333333334" x2="49.949999999999996" y2="100.0"/>
<line x1="33.3" y1="116.66666666666667" x2="49.949999999999996" y2="116.66666666666667"/>
<line x1="49.949999999999996" y1="100.0" x2="49.949999999999996" y2="116.66666666666667"/>
<line x1="49.949999999999996" y1="116.66666666666667" x2="49.949999999999996" y2="133.33333333333334"/>
<line x1="33.3" y1="166.66666666666669" x2="49.949999999999996" y2="166.66666666666669"/>
<line x1="33.3" y1="200.0" x2="49.949999999999996" y2="200.0"/>
<line x1="33.3" y1="216.66666666666669" x2="49.949999999999996" y2="216.66666666666669"/>
<line x1="33.3" y1="233.33333333333334" x2="49.949999999999996" y2="233.33333333333334"/>
<line x1="49.949999999999996" y1="233.33333333333334" x2="49.949999999999996" y2="250.00000000000003"/>
<line x1="49.949999999999996" y1="250.00000000000003" x2="49.949999999999996" y2="266.6666666666667"/>
<line x1="33.3" y1="283.33333333333337" x2="49.949999999999996" y2="283.33333333333337"/>
<line x1="33.3" y1="300.0" x2="49.949999999999996" y2="300.0"/>
<line x1="33.3" y1="316.6666666666667" x2="49.949999999999996" y2="316.6666666666667"/>
<line x1="49.949999999999996" y1="316.6666666666667" x2="49.949999999999996" y2="333.33333333333337"/>
<line x1="33.3" y1="366.6666666666667" x2="49.949999999999996" y2="366.6666666666667"/>
<line x1="33.3" y1="383.33333333333337" x2="49.949999999999996" y2="383.33333333333337"/>
<line x1="33.3" y1="416.6666666666667" x2="49.949999999999996" y2="416.6666666666667"/>
<line x1="49.949999999999996" y1="400.0" x2="49.949999999999996" y2="416.6666666666667"/>
<line x1="33.3" y1="433.33333333333337" x2="49.949999999999996" y2="433.33333333333337"/>
<line x1="49.949999999999996" y1="433.33333333333337" x2="49.949999999999996" y2="450.00000000000006"/>
<line x1="33.3" y1="466.6666666666667" x2="49.949999999999996" y2="466.6666666666667"/>
<line x1="33.3" y1="483.33333333333337" x2="49.949999999999996" y2="483.33333333333337"/>
<line x1="49.949999999999996" y1="466.6666666666667" x2="49.949999999999996" y2="483.33333333333337"/>
<line x1="33.3" y1="500.00000000000006" x2="49.949999999999996" y2="500.00000000000006"/>
<line x1="66.6" y1="0.0" x2="66.6" y2="16.666666666666668"/>
<line x1="49.949999999999996" y1="33.333333333333336" x2="66.6" y2="33.333333333333336"/>
<line x1="66.6" y1="33.333333333333336" x2="66.6" y2="50.0"/>
<line x1="49.949999999999996" y1="66.66666666666667" x2="66.6" y2="66.66666666666667"/>
<line x1="66.6" y1="66.66666666666667" x2="66.6" y2="83.33333333333334"/>
<line x1="66.6" y1="83.33333333333334" x2="66.6" y2="100.0"/>
<line x1="66.6" y1="100.0" x2="66.6" y2="116.66666666666667"/>
<line x1="49.949999999999996" y1="133.33333333333334" x2="66.6" y2="133.33333333333334"/>
<line x1="49.949999999999996" y1="150.0" x2="66.6" y2="150.0"/>
<line x1="66.6" y1="133.33333333333334" x2="66.6" y2="150.0"/>
<line x1="66.6" y1="150.0" x2="66.6" y2="166.66666666666669"/>
<line x1="49.949999999999996" y1="183.33333333333334" x2="66.6" y2="183.33333333333334"/>
<line x1="66.6" y1="166.66666666666669" x2="66.6" y2="183.33333333333334"/>
<line x1="66.6" y1="183.33333333333334" x2="66.6" y2="200.0"/>
<line x1="66.6" y1="200.0" x2="66.6" y2="216.66666666666669"/>
<line x1="66.6" y1="216.66666666666669" x2="66.6" y2="233.33333333333334"/>
<line x1="66.6" y1="233.33333333333334" x2="66.6" y2="250.00000000000003"/>
<line x1="49.949999999999996" y1="266.6666666666667" x2="66.6" y2="266.6666666666667"/>
<line x1="66.6" y1="250.00000000000003" x2="66.6" y2="266.6666666666667"/>
<line x1="49.949999999999996" y1="283.33333333333337" x2="66.6" y2="283.33333333333337"/>
<line x1="66.6" y1="283.33333333333337" x2="66.6" y2="300.0"/>
<line x1="66.6" y1="300.0" x2="66.6" y2="316.6666666666667"/>
<line x1="49.949999999999996" y1="333.33333333333337" x2="66.6" y2="333.33333333333337"/>
<line x1="49.949999999999996" y1="350.0" x2="66.6" y2="350.0"/>
<line x1="66.6" y1="333.33333333333337" x2="66.6" y2="350.0"/>
<line x1="49.949999999999996" y1="366.6666666666667" x2="66.6" y2="366.6666666666667"/>
<line x1="49.949999999999996" y1="383.33333333333337" x2="66.6" y2="383.33333333333337"/>
<line x1="66.6" y1="383.33333333333337" x2="66.6" y2="400.0"/>
<line x1="49.949999999999996" y1="416.6666666666667" x2="66.6" y2="416.6666666666667"/>
<line x1="66.6" y1="416.6666666666667" x2="66.6" y2="433.33333333333337"/>
<line x1="66.6" y1="433.33333333333337" x2="66.6" y2="450.00000000000006"/>
<line x1="49.949999999999996" y1="466.6666666666667" x2="66.6" y2="466.6666666666667"/>
<line x1="66.6" y1="450.00000000000006" x2="66.6" y2="466.6666666666667"/>
<line x1="66.6" y1="16.666666666666668" x2="83.25" y2="16.666666666666668"/>
<line x1="83.25" y1="16.666666666666668" x2="83.25" y2="33.333333333333336"/>
<line x1="83.25" y1="33.333333333333336" x2="83.25" y2="50.0"/>
<line x1="66.6" y1="66.66666666666667" x2="83.25" y2="66.66666666666667"/>
<line x1="83.25" y1="50.0" x2="83.25" y2="66.66666666666667"/>
<line x1="83.25" y1="66.66666666666667" x2="83.25" y2="83.33333333333334"/>
<line x1="83.25" y1="83.33333333333334" x2="83.25" y2="100.0"/>
<line x1="66.6" y1="116.66666666666667" x2="83.25" y2="116.66666666666667"/>
<line x1="66.6" y1="133.33333333333334" x2="83.25" y2="133.33333333333334"/>
<line x1="83.25" y1="150.0" x2="83.25" y2="166.66666666666669"/>
<line x1="66.6" y1="183.33333333333334" x2="83.25" y2="183.33333333333334"/>
<line x1="83.25" y1="200.0" x2="83.25" y2="216.66666666666669"/>
<line x1="66.6" y1="233.33333333333334" x2="83.25" y2="233.33333333333334"/>
<line x1="83.25" y1="250.00000000000003" x2="83.25" y2="266.6666666666667"/>
<line x1="66.6" y1="283.33333333333337" x2="83.25" y2="283.33333333333337"/>
<line x1="83.25" y1="266.6666666666667" x2="83.25" y2="283.33333333333337"/>
<line x1="66.6" y1="316.6666666666667" x2="83.25" y2="316.6666666666667"/>
<line x1="66.6" y1="333.33333333333337" x2="83.25" y2="333.33333333333337"/>
<line x1="66.6" y1="366.6666666666667" x2="83.25" y2="366.6666666666667"/>
<line x1="83.25" y1="350.0" x2="83.25" y2="366.6666666666667"/>
<line x1="66.6" y1="400.0" x2="83.25" y2="400.0"/>
<line x1="83.25" y1="383.33333333333337" x2="83.25" y2="400.0"/>
<line x1="83.25" y1="400.0" x2="83.25" y2="416.6666666666667"/>
<line x1="83.25" y1="416.6666666666667" x2="83.25" y2="433.33333333333337"/>
<line x1="66.6" y1="450.00000000000006" x2="83.25" y2="450.00000000000006"/>
<line x1="66.6" y1="483.33333333333337" x2="83.25" y2="483.33333333333337"/>
<line x1="83.25" y1="466.6666666666667" x2="83.25" y2="483.33333333333337"/>
<line x1="66.6" y1="500.00000000000006" x2="83.25" y2="500.00000000000006"/>
<line x1="83.25" y1="483.33333333333337" x2="83.25" y2="500.00000000000006"/>
<line x1="83.25" y1="16.666666666666668" x2="99.89999999999999" y2="16.666666666666668"/>
<line x1="99.89999999999999" y1="33.333333333333336" x2="99.89999999999999" y2="50.0"/>
<line x1="99.89999999999999" y1="50.0" x2="99.89999999999999" y2="66.66666666666667"/>
<line x1="99.89999999999999" y1="83.33333333333334" x2="99.89999999999999" y2="100.0"/>
<line x1="83.25" y1="116.66666666666667" x2="99.89999999999999" y2="116.66666666666667"/>
<line x1="99.89999999999999" y1="100.0" x2="99.89999999999999" y2="116.66666666666667"/>
<line x1="99.89999999999999" y1="116.66666666666667" x2="99.89999999999999" y2="133.33333333333334"/>
<line x1="83.25" y1="150.0" x2="99.89999999999999" y2="150.0"/>
<line x1="99.89999999999999" y1="133.33333333333334" x2="99.89999999999999" y2="150.0"/>
<line x1="83.25" y1="183.33333333333334" x2="99.89999999999999" y2="183.33333333333334"/>
<line x1="99.89999999999999" y1="166.66666666666669" x2="99.89999999999999" y2="183.33333333333334"/>
<line x1="83.25" y1="200.0" x2="99.89999999999999" y2="200.0"/>
<line x1="83.25" y1="233.33333333333334" x2="99.89999999999999" y2="233.33333333333334"/>
<line x1="99.89999999999999" y1="216.66666666666669" x2="99.89999999999999" y2="233.33333333333334"/>
<line x1="99.89999999999999" y1="233.33333333333334" x2="99.89999999999999" y2="250.00000000000003"/>
<line x1="99.89999999999999" y1="250.00000000000003" x2="99.89999999999999" y2="266.6666666666667"/>
<line x1="99.89999999999999" y1="266.6666666666667" x2="99.89999999999999" y2="283.33333333333337"/>
<line x1="83.25" y1="300.0" x2="99.89999999999999" y2="300.0"/>
<line x1="99.89999999999999" y1="283.33333333333337" x2="99.89999999999999" y2="300.0"/>
<line x1="83.25" y1="316.6666666666667" x2="99.89999999999999" y2="316.6666666666667"/>
<line x1="83.25" y1="333.33333333333337" x2="99.89999999999999" y2="333.33333333333337"/>
<line x1="99.89999999999999" y1="333.33333333333337" x2="99.89999999999999" y2="350.0"/>
<line x1="83.25" y1="366.6666666666667" x2="99.89999999999999" y2="366.6666666666667"/>
<line x1="99.89999999999999" y1="400.0" x2="99.89999999999999" y2="416.6666666666667"/>
<line x1="83.25" y1="433.33333333333337" x2="99.89999999999999" y2="433.33333333333337"/>
<line x1="99.89999999999999" y1="416.6666666666667" x2="99.89999999999999" y2="433.33333333333337"/>
<line x1="83.25" y1="450.00000000000006" x2="99.89999999999999" y2="450.00000000000006"/>
<line x1="99.89999999999999" y1="466.6666666666667" x2="99.89999999999999" y2="483.33333333333337"/>
<line x1="83.25" y1="500.00000000000006" x2="99.89999999999999" y2="500.00000000000006"/>
<line x1="99.89999999999999" y1="16.666666666666668" x2="116.54999999999998" y2="16.666666666666668"/>
<line x1="99.89999999999999" y1="33.333333333333336" x2="116.54999999999998" y2="33.333333333333336"/>
<line x1="99.89999999999999" y1="66.66666666666667" x2="116.54999999999998" y2="66.66666666666667"/>
<line x1="116.54999999999998" y1="50.0" x2="116.54999999999998" y2="66.66666666666667"/>
<line x1="116.54999999999998" y1="66.66666666666667" x2="116.54999999999998" y2="83.33333333333334"/>
<line x1="99.89999999999999" y1="100.0" x2="116.54999999999998" y2="100.0"/>
<line x1="116.54999999999998" y1="116.66666666666667" x2="116.54999999999998" y2="133.33333333333334"/>
<line x1="116.54999999999998" y1="133.33333333333334" x2="116.54999999999998" y2="150.0"/>
<line x1="99.89999999999999" y1="166.66666666666669" x2="116.54999999999998" y2="166.66666666666669"/>
<line x1="116.54999999999998" y1="150.0" x2="116.54999999999998" y2="166.66666666666669"/>
<line x1="99.89999999999999" y1="200.0" x2="116.54999999999998" y2="200.0"/>
<line x1="116.54999999999998" y1="183.33333333333334" x2="116.54999999999998" y2="200.0"/>
<line x1="99.89999999999999" y1="216.66666666666669" x2="116.54999999999998" y2="216.66666666666669"/>
<line x1="99.89999999999999" y1="250.00000000000003" x2="116.54999999999998" y2="250.00000000000003"/>
<line x1="116.54999999999998" y1="266.6666666666667" x2="116.54999999999998" y2="283.33333333333337"/>
<line x1="116.54999999999998" y1="283.33333333333337" x2="116.54999999999998" y2="300.0"/>
<line x1="99.89999999999999" y1="316.6666666666667" x2="116.54999999999998" y2="316.6666666666667"/>
<line x1="116.54999999999998" y1="300.0" x2="116.54999999999998" y2="316.6666666666667"/>
<line x1="116.54999999999998" y1="316.6666666666667" x2="116.54999999999998" y2="333.33333333333337"/>
<line x1="99.89999999999999" y1="350.0" x2="116.54999999999998" y2="350.0"/>
<line x1="99.89999999999999" y1="366.6666666666667" x2="116.54999999999998" y2="366.6666666666667"/>
<line x1="99.89999999999999" y1="383.33333333333337" x2="116.54999999999998" y2="383.33333333333337"/>
<line x1="116.54999999999998" y1="366.6666666666667" x2="116.54999999999998" y2="383.33333333333337"/>
<line x1="116.54999999999998" y1="383.33333333333337" x2="116.54999999999998" y2="400.0"/>
<line x1="116.54999999999998" y1="400.0" x2="116.54999999999998" y2="416.6666666666667"/>
<line x1="99.89999999999999" y1="433.33333333333337" x2="116.54999999999998" y2="433.33333333333337"/>
<line x1="99.89999999999999" y1="450.00000000000006" x2="116.54999999999998" y2="450.00000000000006"/>
<line x1="116.54999999999998" y1="450.00000000000006" x2="116.54999999999998" y2="466.6666666666667"/>
<line x1="99.89999999999999" y1="483.33333333333337" x2="116.54999999999998" y2="483.33333333333337"/>
<line x1="116.54999999999998" y1="466.6666666666667" x2="116.54999999999998" y2="483.33333333333337"/>
<line x1="99.89999999999999" y1="500.00000000000006" x2="116.54999999999998" y2="500.00000000000006"/>
<line x1="133.2" y1="0.0" x2="133.2" y2="16.666666666666668"/>
<line x1="133.2" y1="16.666666666666668" x2="133.2" y2="33.333333333333336"/>
<line x1="116.54999999999998" y1="50.0" x2="133.2" y2="50.0"/>
<line x1="133.2" y1="33.333333333333336" x2="133.2" y2="50.0"/>
<line x1="116.54999999999998" y1="83.33333333333334" x2="133.2" y2="83.33333333333334"/>
<line x1="116.54999999999998" y1="100.0" x2="133.2" y2="100.0"/>
<line x1="133.2" y1="100.0" x2="133.2" y2="116.66666666666667"/>
<line x1="116.54999999999998" y1="133.33333333333334" x2="133.2" y2="133.33333333333334"/>
<line x1="116.54999999999998" y1="150.0" x2="133.2" y2="150.0"/>
<line x1="116.54999999999998" y1="183.33333333333334" x2="133.2" y2="183.33333333333334"/>
<line x1="116.54999999999998" y1="200.0" x2="133.2" y2="200.0"/>
<line x1="116.54999999999998" y1="216.66666666666669" x2="133.2" y2="216.66666666666669"/>
<line x1="116.54999999999998" y1="233.33333333333334" x2="133.2" y2="233.33333333333334"/>
<line x1="133.2" y1="233.33333333333334" x2="133.2" y2="250.00000000000003"/>
<line x1="116.54999999999998" y1="266.6666666666667" x2="133.2" y2="266.6666666666667"/>
<line x1="133.2" y1="250.00000000000003" x2="133.2" y2="266.6666666666667"/>
<line x1="133.2" y1="283.33333333333337" x2="133.2" y2="300.0"/>
<line x1="133.2" y1="300.0" x2="133.2" y2="316.6666666666667"/>
<line x1="116.54999999999998" y1="333.33333333333337" x2="133.2" y2="333.33333333333337"/>
<line x1="116.54999999999998" y1="350.0" x2="133.2" y2="350.0"/>
<line x1="116.54999999999998" y1="366.6666666666667" x2="133.2" y2="366.6666666666667"/>
<line x1="133.2" y1="383.33333333333337" x2="133.2" y2="400.0"/>
<line x1="133.2" y1="400.0" x2="133.2" y2="416.6666666666667"/>
<line x1="116.54999999999998" y1="433.33333333333337" x2="133.2" y2="433.33333333333337"/>
<line x1="133.2" y1="416.6666666666667" x2="133.2" y2="433.33333333333337"/>
<line x1="133.2" y1="433.33333333333337" x2="133.2" y2="450.00000000000006"/>
<line x1="133.2" y1="450.00000000000006" x2="133.2" y2="466.6666666666667"/>
<line x1="133.2" y1="466.6666666666667" x2="133.2" y2="483.33333333333337"/>
<line x1="116.54999999999998" y1="500.00000000000006" x2="133.2" y2="500.00000000000006"/>
<line x1="149.85" y1="16.666666666666668" x2="149.85" y2="33.333333333333336"/>
<line x1="149.85" y1="33.333333333333336" x2="149.85" y2="50.0"/>
<line x1="133.2" y1="66.66666666666667" x2="149.85" y2="66.66666666666667"/>
<line x1="149.85" y1="50.0" x2="149.85" y2="66.66666666666667"/>
<line x1="149.85" y1="66.66666666666667" x2="149.85" y2="83.33333333333334"/>
<line x1="133.2" y1="100.0" x2="149.85" y2="100.0"/>
<line x1="133.2" y1="116.66666666666667" x2="149.85" y2="116.66666666666667"/>
<line x1="133.2" y1="133.33333333333334" x2="149.85" y2="133.33333333333334"/>
<line x1="149.85" y1="133.33333333333334" x2="149.85" y2="150.0"/>
<line x1="133.2" y1="166.66666666666669" x2="149.85" y2="166.66666666666669"/>
<line x1="149.85" y1="150.0" x2="149.85" y2="166.66666666666669"/>
<line x1="133.2" y1="183.33333333333334" x2="149.85" y2="183.33333333333334"/>
<line x1="149.85" y1="183.33333333333334" x2="149.85" y2="200.0"/>
<line x1="149.85" y1="200.0" x2="149.85" y2="216.66666666666669"/>
<line x1="133.2" y1="233.33333333333334" x2="149.85" y2="233.33333333333334"/>
<line x1="149.85" y1="216.66666666666669" x2="149.85" y2="233.33333333333334"/>
<line x1="149.85" y1="233.33333333333334" x2="149.85" y2="250.00000000000003"/>
<line x1="133.2" y1="266.6666666666667" x2="149.85" y2="266.6666666666667"/>
<line x1="149.85" y1="266.6666666666667" x2="149.85" y2="283.33333333333337"/>
<line x1="133.2" y1="300.0" x2="149.85" y2="300.0"/>
<line x1="133.2" y1="333.33333333333337" x2="149.85" y2="333.33333333333337"/>
<line x1="149.85" y1="316.6666666666667" x2="149.85" y2="333.33333333333337"/>
<line x1="149.85" y1="333.33333333333337" x2="149.85" y2="350.0"/>
<line x1="133.2" y1="366.6666666666667" x2="149.85" y2="366.6666666666667"/>
<line x1="149.85" y1="350.0" x2="149.85" y2="366.6666666666667"/>
<line x1="149.85" y1="383.33333333333337" x2="149.85" y2="400.0"/>
<line x1="149.85" y1="400.0" x2="149.85" y2="416.6666666666667"/>
<line x1="133.2" y1="450.00000000000006" x2="149.85" y2="450.00000000000006"/>
<line x1="149.85" y1="466.6666666666667" x2="149.85" y2="483.33333333333337"/>
<line x1="133.2" y1="500.00000000000006" x2="149.85" y2="500.00000000000006"/>
<line x1="149.85" y1="483.33333333333337" x2="149.85" y2="500.00000000000006"/>
<line x1="149.85" y1="33.333333333333336" x2="166.5" y2="33.333333333333336"/>
<line x1="166.5" y1="50.0" x2="166.5" y2="66.66666666666667"/>
<line x1="149.85" y1="83.33333333333334" x2="166.5" y2="83.33333333333334"/>
<line x1="166.5" y1="66.66666666666667" x2="166.5" y2="83.33333333333334"/>
<line x1="166.5" y1="83.33333333333334" x2="166.5" y2="100.0"/>
<line x1="149.85" y1="116.66666666666667" x2="166.5" y2="116.66666666666667"/>
<line x1="166.5" y1="116.66666666666667" x2="166.5" y2="133.33333333333334"/>
<line x1="166.5" y1="133.33333333333334" x2="166.5" y2="150.0"/>
<line x1="149.85" y1="166.66666666666669" x2="166.5" y2="166.66666666666669"/>
<line x1="149.85" y1="183.33333333333334" x2="166.5" y2="183.33333333333334"/>
<line x1="166.5" y1="200.0" x2="166.5" y2="216.66666666666669"/>
<line x1="166.5" y1="216.66666666666669" x2="166.5" y2="233.33333333333334"/>
<line x1="149.85" y1="250.00000000000003" x2="166.5" y2="250.00000000000003"/>
<line x1="149.85" y1="283.33333333333337" x2="166.5" y2="283.33333333333337"/>
<line x1="166.5" y1="266.6666666666667" x2="166.5" y2="283.33333333333337"/>
<line x1="149.85" y1="300.0" x2="166.5" y2="300.0"/>
<line x1="149.85" y1="316.6666666666667" x2="166.5" y2="316.6666666666667"/>
<line x1="149.85" y1="366.6666666666667" x2="166.5" y2="366.6666666666667"/>
<line x1="166.5" y1="350.0" x2="166.5" y2="366.6666666666667"/>
<line x1="166.5" y1="366.6666666666667" x2="166.5" y2="383.33333333333337"/>
<line x1="149.85" y1="400.0" x2="166.5" y2="400.0"/>
<line x1="149.85" y1="416.6666666666667" x2="166.5" y2="416.6666666666667"/>
<line x1="149.85" y1="433.33333333333337" x2="166.5" y2="433.33333333333337"/>
<line x1="149.85" y1="450.00000000000006" x2="166.5" y2="450.00000000000006"/>
<line x1="166.5" y1="433.33333333333337" x2="166.5" y2="450.00000000000006"/>
<line x1="149.85" y1="466.6666666666667" x2="166.5" y2="466.6666666666667"/>
<line x1="166.5" y1="466.6666666666667" x2="166.5" y2="483.33333333333337"/>
<line x1="149.85" y1="500.00000000000006" x2="166.5" y2="500.00000000000006"/>
<line x1="166.5" y1="16.666666666666668" x2="183.14999999999998" y2="16.666666666666668"/>
<line x1="166.5" y1="33.333333333333336" x2="183.14999999999998" y2="33.333333333333336"/>
<line x1="183.14999999999998" y1="33.333333333333336" x2="183.14999999999998" y2="50.0"/>
<line x1="183.14999999999998" y1="66.66666666666667" x2="183.14999999999998" y2="83.33333333333334"/>
<line x1="183.14999999999998" y1="83.33333333333334" x2="183.14999999999998" y2="100.0"/>
<line x1="166.5" y1="116.66666666666667" x2="183.14999999999998" y2="116.66666666666667"/>
<line x1="183.14999999999998" y1="100.0" x2="183.14999999999998" y2="116.66666666666667"/>
<line x1="166.5" y1="150.0" x2="183.14999999999998" y2="150.0"/>
<line x1="166.5" y1="166.66666666666669" x2="183.14999999999998" y2="166.66666666666669"/>
<line x1="183.14999999999998" y1="166.66666666666669" x2="183.14999999999998" y2="183.33333333333334"/>
<line x1="183.14999999999998" y1="183.33333333333334" x2="183.14999999999998" y2="200.0"/>
<line x1="183.14999999999998" y1="200.0" x2="183.14999999999998" y2="216.66666666666669"/>
<line x1="166.5" y1="233.33333333333334" x2="183.14999999999998" y2="233.33333333333334"/>
<line x1="166.5" y1="250.00000000000003" x2="183.14999999999998" y2="250.00000000000003"/>
<line x1="183.14999999999998" y1="266.6666666666667" x2="183.14999999999998" y2="283.33333333333337"/>
<line x1="166.5" y1="300.0" x2="183.14999999999998" y2="300.0"/>
<line x1="183.14999999999998" y1="283.33333333333337" x2="183.14999999999998" y2="300.0"/>
<line x1="166.5" y1="316.6666666666667" x2="183.14999999999998" y2="316.6666666666667"/>
<line x1="166.5" y1="333.33333333333337" x2="183.14999999999998" y2="333.33333333333337"/>
<line x1="183.14999999999998" y1="333.33333333333337" x2="183.14999999999998" y2="350.0"/>
<line x1="183.14999999999998" y1="350.0" x2="183.14999999999998" y2="366.6666666666667"/>
<line x1="166.5" y1="383.33333333333337" x2="183.14999999999998" y2="383.33333333333337"/>
<line x1="183.14999999999998" y1="383.33333333333337" x2="183.14999999999998" y2="400.0"/>
<line x1="166.5" y1="416.6666666666667" x2="183.14999999999998" y2="416.6666666666667"/>
<line x1="166.5" y1="433.33333333333337" x2="183.14999999999998" y2="433.33333333333337"/>
<line x1="166.5" y1="466.6666666666667" x2="183.14999999999998" y2="466.6666666666667"/>
<line x1="183.14999999999998" y1="450.00000000000006" x2="183.14999999999998" y2="466.6666666666667"/>
<line x1="166.5" y1="500.00000000000006" x2="183.14999999999998" y2="500.00000000000006"/>
<line x1="183.14999999999998" y1="16.666666666666668" x2="199.79999999999998" y2="16.666666666666668"/>
<line x1="199.79999999999998" y1="16.666666666666668" x2="199.79999999999998" y2="33.333333333333336"/>
<line x1="183.14999999999998" y1="50.0" x2="199.79999999999998" y2="50.0"/>
<line x1="199.79999999999998" y1="50.0" x2="199.79999999999998" y2="66.66666666666667"/>
<line x1="199.79999999999998" y1="66.66666666666667" x2="199.79999999999998" y2="83.33333333333334"/>
<line x1="199.79999999999998" y1="83.33333333333334" x2="199.79999999999998" y2="100.0"/>
<line x1="199.79999999999998" y1="100.0" x2="199.79999999999998" y2="116.66666666666667"/>
<line x1="183.14999999999998" y1="133.33333333333334" x2="199.79999999999998" y2="133.33333333333334"/>
<line x1="199.79999999999998" y1="116.66666666666667" x2="199.79999999999998" y2="133.33333333333334"/>
<line x1="183.14999999999998" y1="150.0" x2="199.79999999999998" y2="150.0"/>
<line x1="199.79999999999998" y1="150.0" x2="199.79999999999998" y2="166.66666666666669"/>
<line x1="199.79999999999998" y1="166.66666666666669" x2="199.79999999999998" y2="183.33333333333334"/>
<line x1="199.79999999999998" y1="183.33333333333334" x2="199.79999999999998" y2="200.0"/>
<line x1="183.14999999999998" y1="216.66666666666669" x2="199.79999999999998" y2="216.66666666666669"/>
<line x1="183.14999999999998" y1="233.33333333333334" x2="199.79999999999998" y2="233.33333333333334"/>
<line x1="199.79999999999998" y1="216.66666666666669" x2="199.79999999999998" y2="233.33333333333334"/>
<line x1="183.14999999999998" y1="250.00000000000003" x2="199.79999999999998" y2="250.00000000000003"/>
<line x1="183.14999999999998" y1="266.6666666666667" x2="199.79999999999998" y2="266.6666666666667"/>
<line x1="199.79999999999998" y1="250.00000000000003" x2="199.79999999999998" y2="266.6666666666667"/>
<line x1="183.14999999999998" y1="300.0" x2="199.79999999999998" y2="300.0"/>
<line x1="199.79999999999998" y1="300.0" x2="199.79999999999998" y2="316.6666666666667"/>
<line x1="183.14999999999998" y1="333.33333333333337" x2="199.79999999999998" y2="333.33333333333337"/>
<line x1="199.79999999999998" y1="316.6666666666667" x2="199.79999999999998" y2="333.33333333333337"/>
<line x1="199.79999999999998" y1="366.6666666666667" x2="199.79999999999998" y2="383.33333333333337"/>
<line x1="183.14999999999998" y1="400.0" x2="199.79999999999998" y2="400.0"/>
<line x1="199.79999999999998" y1="383.33333333333337" x2="199.79999999999998" y2="400.0"/>
<line x1="183.14999999999998" y1="416.6666666666667" x2="199.79999999999998" y2="416.6666666666667"/>
<line x1="199.79999999999998" y1="416.6666666666667" x2="199.79999999999998" y2="433.33333333333337"/>
<line x1="183.14999999999998" y1="450.00000000000006" x2="199.79999999999998" y2="450.00000000000006"/>
<line x1="199.79999999999998" y1="433.33333333333337" x2="199.79999999999998" y2="450.00000000000006"/>
<line x1="183.14999999999998" y1="483.33333333333337" x2="199.79999999999998" y2="483.33333333333337"/>
<line x1="183.14999999999998" y1="500.00000000000006" x2="199.79999999999998" y2="500.00000000000006"/>
<line x1="216.45" y1="0.0" x2="216.45" y2="16.666666666666668"/>
<line x1="199.79999999999998" y1="33.333333333333336" x2="216.45" y2="33.333333333333336"/>
<line x1="216.45" y1="33.333333333333336" x2="216.45" y2="50.0"/>
<line x1="199.79999999999998" y1="66.66666666666667" x2="216.45" y2="66.66666666666667"/>
<line x1="216.45" y1="83.33333333333334" x2="216.45" y2="100.0"/>
<line x1="199.79999999999998" y1="116.66666666666667" x2="216.45" y2="116.66666666666667"/>
<line x1="199.79999999999998" y1="133.33333333333334" x2="216.45" y2="133.33333333333334"/>
<line x1="199.79999999999998" y1="150.0" x2="216.45" y2="150.0"/>
<line x1="199.79999999999998" y1="200.0" x2="216.45" y2="200.0"/>
<line x1="216.45" y1="200.0" x2="216.45" y2="216.66666666666669"/>
<line x1="199.79999999999998" y1="233.33333333333334" x2="216.45" y2="233.33333333333334"/>
<line x1="216.45" y1="233.33333333333334" x2="216.45" y2="250.00000000000003"/>
<line x1="199.79999999999998" y1="266.6666666666667" x2="216.45" y2="266.6666666666667"/>
<line x1="199.79999999999998" y1="283.33333333333337" x2="216.45" y2="283.33333333333337"/>
<line x1="216.45" y1="283.33333333333337" x2="216.45" y2="300.0"/>
<line x1="216.45" y1="300.0" x2="216.45" y2="316.6666666666667"/>
<line x1="216.45" y1="316.6666666666667" x2="216.45" y2="333.33333333333337"/>
<line x1="199.79999999999998" y1="350.0" x2="216.45" y2="350.0"/>
<line x1="216.45" y1="333.33333333333337" x2="216.45" y2="350.0"/>
<line x1="199.79999999999998" y1="366.6666666666667" x2="216.45" y2="366.6666666666667"/>
<line x1="199.79999999999998" y1="400.0" x2="216.45" y2="400.0"/>
<line x1="199.79999999999998" y1="416.6666666666667" x2="216.45" y2="416.6666666666667"/>
<line x1="216.45" y1="416.6666666666667" x2="216.45" y2="433.33333333333337"/>
<line x1="199.79999999999998" y1="450.00000000000006" x2="216.45" y2="450.00000000000006"/>
<line x1="199.79999999999998" y1="466.6666666666667" x2="216.45" y2="466.6666666666667"/>
<line x1="199.79999999999998" y1="483.33333333333337" x2="216.45" y2="483.33333333333337"/>
<line x1="199.79999999999998" y1="500.00000000000006" x2="216.45" y2="500.00000000000006"/>
<line x1="216.45" y1="483.33333333333337" x2="216.45" y2="500.00000000000006"/>
<line x1="216.45" y1="16.666666666666668" x2="233.09999999999997" y2="16.666666666666668"/>
<line x1="216.45" y1="33.333333333333336" x2="233.09999999999997" y2="33.333333333333336"/>
<line x1="216.45" y1="50.0" x2="233.09999999999997" y2="50.0"/>
<line x1="233.09999999999997" y1="50.0" x2="233.09999999999997" y2="66.66666666666667"/>
<line x1="233.09999999999997" y1="66.66666666666667" x2="233.09999999999997" y2="83.33333333333334"/>
<line x1="216.45" y1="100.0" x2="233.09999999999997" y2="100.0"/>
<line x1="233.09999999999997" y1="83.33333333333334" x2="233.09999999999997" y2="100.0"/>
<line x1="216.45" y1="116.66666666666667" x2="233.09999999999997" y2="116.66666666666667"/>
<line x1="233.09999999999997" y1="116.66666666666667" x2="233.09999999999997" y2="133.33333333333334"/>
<line x1="216.45" y1="150.0" x2="233.09999999999997" y2="150.0"/>
<line x1="233.09999999999997" y1="133.33333333333334" x2="233.09999999999997" y2="150.0"/>
<line x1="216.45" y1="166.66666666666669" x2="233.09999999999997" y2="166.66666666666669"/>
<line x1="216.45" y1="183.33333333333334" x2="233.09999999999997" y2="183.33333333333334"/>
<line x1="233.09999999999997" y1="183.33333333333334" x2="233.09999999999997" y2="200.0"/>
<line x1="216.45" y1="216.66666666666669" x2="233.09999999999997" y2="216.66666666666669"/>
<line x1="216.45" y1="233.33333333333334" x2="233.09999999999997" y2="233.33333333333334"/>
<line x1="216.45" y1="266.6666666666667" x2="233.09999999999997" y2="266.6666666666667"/>
<line x1="233.09999999999997" y1="250.00000000000003" x2="233.09999999999997" y2="266.6666666666667"/>
<line x1="233.09999999999997" y1="266.6666666666667" x2="233.09999999999997" y2="283.33333333333337"/>
<line x1="216.45" y1="300.0" x2="233.09999999999997" y2="300.0"/>
<line x1="233.09999999999997" y1="300.0" x2="233.09999999999997" y2="316.6666666666667"/>
<line x1="233.09999999999997" y1="316.6666666666667" x2="233.09999999999997" y2="333.33333333333337"/>
<line x1="216.45" y1="366.6666666666667" x2="233.09999999999997" y2="366.6666666666667"/>
<line x1="233.09999999999997" y1="350.0" x2="233.09999999999997" y2="366.6666666666667"/>
<line x1="216.45" y1="383.33333333333337" x2="233.09999999999997" y2="383.33333333333337"/>
<line x1="216.45" y1="400.0" x2="233.09999999999997" y2="400.0"/>
<line x1="233.09999999999997" y1="400.0" x2="233.09999999999997" y2="416.6666666666667"/>
<line x1="216.45" y1="433.33333333333337" x2="233.09999999999997" y2="433.33333333333337"/>
<line x1="216.45" y1="466.6666666666667" x2="233.09999999999997" y2="466.6666666666667"/>
<line x1="233.09999999999997" y1="450.00000000000006" x2="233.09999999999997" y2="466.6666666666667"/>
<line x1="233.09999999999997" y1="466.6666666666667" x2="233.09999999999997" y2="483.33333333333337"/>
<line x1="216.45" y1="500.00000000000006" x2="233.09999999999997" y2="500.00000000000006"/>
<line x1="233.09999999999997" y1="16.666666666666668" x2="249.74999999999997" y2="16.666666666666668"/>
<line x1="249.74999999999997" y1="16.666666666666668" x2="249.74999999999997" y2="33.333333333333336"/>
<line x1="233.09999999999997" y1="50.0" x2="249.74999999999997" y2="50.0"/>
<line x1="233.09999999999997" y1="83.33333333333334" x2="249.74999999999997" y2="83.33333333333334"/>
<line x1="249.74999999999997" y1="66.66666666666667" x2="249.74999999999997" y2="83.33333333333334"/>
<line x1="233.09999999999997" y1="116.66666666666667" x2="249.74999999999997" y2="116.66666666666667"/>
<line x1="249.74999999999997" y1="133.33333333333334" x2="249.74999999999997" y2="150.0"/>
<line x1="233.09999999999997" y1="166.66666666666669" x2="249.74999999999997" y2="166.66666666666669"/>
<line x1="249.74999999999997" y1="150.0" x2="249.74999999999997" y2="166.66666666666669"/>
<line x1="233.09999999999997" y1="183.33333333333334" x2="249.74999999999997" y2="183.33333333333334"/>
<line x1="233.09999999999997" y1="200.0" x2="249.74999999999997" y2="200.0"/>
<line x1="233.09999999999997" y1="216.66666666666669" x2="249.74999999999997" y2="216.66666666666669"/>
<line x1="249.74999999999997" y1="216.66666666666669" x2="249.74999999999997" y2="233.33333333333334"/>
<line x1="233.09999999999997" y1="250.00000000000003" x2="249.74999999999997" y2="250.00000000000003"/>
<line x1="249.74999999999997" y1="233.33333333333334" x2="249.74999999999997" y2="250.00000000000003"/>
<line x1="233.09999999999997" y1="283.33333333333337" x2="249.74999999999997" y2="283.33333333333337"/>
<line x1="249.74999999999997" y1="283.33333333333337" x2="249.74999999999997" y2="300.0"/>
<line x1="233.09999999999997" y1="333.33333333333337" x2="249.74999999999997" y2="333.33333333333337"/>
<line x1="249.74999999999997" y1="333.33333333333337" x2="249.74999999999997" y2="350.0"/>
<line x1="233.09999999999997" y1="366.6666666666667" x2="249.74999999999997" y2="366.6666666666667"/>
<line x1="249.74999999999997" y1="350.0" x2="249.74999999999997" y2="366.6666666666667"/>
<line x1="233.09999999999997" y1="383.33333333333337" x2="249.74999999999997" y2="383.33333333333337"/>
<line x1="249.74999999999997" y1="383.33333333333337" x2="249.74999999999997" y2="400.0"/>
<line x1="249.74999999999997" y1="400.0" x2="249.74999999999997" y2="416.6666666666667"/>
<line x1="233.09999999999997" y1="433.33333333333337" x2="249.74999999999997" y2="433.33333333333337"/>
<line x1="249.74999999999997" y1="416.6666666666667" x2="249.74999999999997" y2="433.33333333333337"/>
<line x1="233.09999999999997" y1="450.00000000000006" x2="249.74999999999997" y2="450.00000000000006"/>
<line x1="249.74999999999997" y1="466.6666666666667" x2="249.74999999999997" y2="483.33333333333337"/>
<line x1="233.09999999999997" y1="500.00000000000006" x2="249.74999999999997" y2="500.00000000000006"/>
<line x1="249.74999999999997" y1="483.33333333333337" x2="249.74999999999997" y2="500.00000000000006"/>
<line x1="266.4" y1="16.666666666666668" x2="266.4" y2="33.333333333333336"/>
<line x1="249.74999999999997" y1="50.0" x2="266.4" y2="50.0"/>
<line x1="266.4" y1="33.333333333333336" x2="266.4" y2="50.0"/>
<line x1="249.74999999999997" y1="66.66666666666667" x2="266.4" y2="66.66666666666667"/>
<line x1="249.74999999999997" y1="100.0" x2="266.4" y2="100.0"/>
<line x1="266.4" y1="83.33333333333334" x2="266.4" y2="100.0"/>
<line x1="249.74999999999997" y1="116.66666666666667" x2="266.4" y2="116.66666666666667"/>
<line x1="266.4" y1="116.66666666666667" x2="266.4" y2="133.33333333333334"/>
<line x1="249.74999999999997" y1="150.0" x2="266.4" y2="150.0"/>
<line x1="249.74999999999997" y1="183.33333333333334" x2="266.4" y2="183.33333333333334"/>
<line x1="266.4" y1="166.66666666666669" x2="266.4" y2="183.33333333333334"/>
<line x1="266.4" y1="183.33333333333334" x2="266.4" y2="200.0"/>
<line x1="266.4" y1="200.0" x2="266.4" y2="216.66666666666669"/>
<line x1="266.4" y1="216.66666666666669" x2="266.4" y2="233.33333333333334"/>
<line x1="266.4" y1="233.33333333333334" x2="266.4" y2="250.00000000000003"/>
<line x1="249.74999999999997" y1="266.6666666666667" x2="266.4" y2="266.6666666666667"/>
<line x1="266.4" y1="250.00000000000003" x2="266.4" y2="266.6666666666667"/>
<line x1="266.4" y1="266.6666666666667" x2="266.4" y2="283.33333333333337"/>
<line x1="249.74999999999997" y1="300.0" x2="266.4" y2="300.0"/>
<line x1="249.74999999999997" y1="316.6666666666667" x2="266.4" y2="316.6666666666667"/>
<line x1="266.4" y1="300.0" x2="266.4" y2="316.6666666666667"/>
<line x1="266.4" y1="316.6666666666667" x2="266.4" y2="333.33333333333337"/>
<line x1="266.4" y1="333.33333333333337" x2="266.4" y2="350.0"/>
<line x1="249.74999999999997" y1="366.6666666666667" x2="266.4" y2="366.6666666666667"/>
<line x1="249.74999999999997" y1="383.33333333333337" x2="266.4" y2="383.33333333333337"/>
<line x1="266.4" y1="400.0" x2="266.4" y2="416.6666666666667"/>
<line x1="249.74999999999997" y1="433.33333333333337" x2="266.4" y2="433.33333333333337"/>
<line x1="249.74999999999997" y1="450.00000000000006" x2="266.4" y2="450.00000000000006"/>
<line x1="266.4" y1="450.00000000000006" x2="266.4" y2="466.6666666666667"/>
<line x1="266.4" y1="466.6666666666667" x2="266.4" y2="483.33333333333337"/>
<line x1="249.74999999999997" y1="500.00000000000006" x2="266.4" y2="500.00000000000006"/>
<line x1="283.04999999999995" y1="0.0" x2="283.04999999999995" y2="16.666666666666668"/>
<line x1="283.04999999999995" y1="16.666666666666668" x2="283.04999999999995" y2="33.333333333333336"/>
<line x1="283.04999999999995" y1="33.333333333333336" x2="283.04999999999995" y2="50.0"/>
<line x1="266.4" y1="66.66666666666667" x2="283.04999999999995" y2="66.66666666666667"/>
<line x1="266.4" y1="83.33333333333334" x2="283.04999999999995" y2="83.33333333333334"/>
<line x1="266.4" y1="100.0" x2="283.04999999999995" y2="100.0"/>
<line x1="266.4" y1="116.66666666666667" x2="283.04999999999995" y2="116.66666666666667"/>
<line x1="266.4" y1="150.0" x2="283.04999999999995" y2="150.0"/>
<line x1="283.04999999999995" y1="133.33333333333334" x2="283.04999999999995" y2="150.0"/>
<line x1="283.04999999999995" y1="150.0" x2="283.04999999999995" y2="166.66666666666669"/>
<line x1="283.04999999999995" y1="166.66666666666669" x2="283.04999999999995" y2="183.33333333333334"/>
<line x1="283.04999999999995" y1="183.33333333333334" x2="283.04999999999995" y2="200.0"/>
<line x1="283.04999999999995" y1="200.0" x2="283.04999999999995" y2="216.66666666666669"/>
<line x1="266.4" y1="233.33333333333334" x2="283.04999999999995" y2="233.33333333333334"/>
<line x1="266.4" y1="266.6666666666667" x2="283.04999999999995" y2="266.6666666666667"/>
<line x1="266.4" y1="283.33333333333337" x2="283.04999999999995" y2="283.33333333333337"/>
<line x1="266.4" y1="300.0" x2="283.04999999999995" y2="300.0"/>
<line x1="283.04999999999995" y1="316.6666666666667" x2="283.04999999999995" y2="333.33333333333337"/>
<line x1="283.04999999999995" y1="333.33333333333337" x2="283.04999999999995" y2="350.0"/>
<line x1="266.4" y1="366.6666666666667" x2="283.04999999999995" y2="366.6666666666667"/>
<line x1="266.4" y1="383.33333333333337" x2="283.04999999999995" y2="383.33333333333337"/>
<line x1="283.04999999999995" y1="383.33333333333337" x2="283.04999999999995" y2="400.0"/>
<line x1="266.4" y1="416.6666666666667" x2="283.04999999999995" y2="416.6666666666667"/>
<line x1="283.04999999999995" y1="400.0" x2="283.04999999999995" y2="416.6666666666667"/>
<line x1="283.04999999999995" y1="416.6666666666667" x2="283.04999999999995" y2="433.33333333333337"/>
<line x1="266.4" y1="450.00000000000006" x2="283.04999999999995" y2="450.00000000000006"/>
<line x1="283.04999999999995" y1="450.00000000000006" x2="283.04999999999995" y2="466.6666666666667"/>
<line x1="266.4" y1="483.33333333333337" x2="283.04999999999995" y2="483.33333333333337"/>
<line x1="266.4" y1="500.00000000000006" x2="283.04999999999995" y2="500.00000000000006"/>
<line x1="283.04999999999995" y1="16.666666666666668" x2="299.7" y2="16.666666666666668"/>
<line x1="283.04999999999995" y1="50.0" x2="299.7" y2="50.0"/>
<line x1="283.04999999999995" y1="66.66666666666667" x2="299.7" y2="66.66666666666667"/>
<line x1="283.04999999999995" y1="83.33333333333334" x2="299.7" y2="83.33333333333334"/>
<line x1="299.7" y1="83.33333333333334" x2="299.7" y2="100.0"/>
<line x1="283.04999999999995" y1="116.66666666666667" x2="299.7" y2="116.66666666666667"/>
<line x1="299.7" y1="100.0" x2="299.7" y2="116.66666666666667"/>
<line x1="283.04999999999995" y1="133.33333333333334" x2="299.7" y2="133.33333333333334"/>
<line x1="283.04999999999995" y1="166.66666666666669" x2="299.7" y2="166.66666666666669"/>
<line x1="299.7" y1="183.33333333333334" x2="299.7" y2="200.0"/>
<line x1="299.7" y1="200.0" x2="299.7" y2="216.66666666666669"/>
<line x1="283.04999999999995" y1="233.33333333333334" x2="299.7" y2="233.33333333333334"/>
<line x1="299.7" y1="216.66666666666669" x2="299.7" y2="233.33333333333334"/>
<line x1="283.04999999999995" y1="250.00000000000003" x2="299.7" y2="250.00000000000003"/>
<line x1="283.04999999999995" y1="266.6666666666667" x2="299.7" y2="266.6666666666667"/>
<line x1="299.7" y1="266.6666666666667" x2="299.7" y2="283.33333333333337"/>
<line x1="283.04999999999995" y1="300.0" x2="299.7" y2="300.0"/>
<line x1="283.04999999999995" y1="316.6666666666667" x2="299.7" y2="316.6666666666667"/>
<line x1="283.04999999999995" y1="350.0" x2="299.7" y2="350.0"/>
<line x1="283.04999999999995" y1="366.6666666666667" x2="299.7" y2="366.6666666666667"/>
<line x1="299.7" y1="350.0" x2="299.7" y2="366.6666666666667"/>
<line x1="283.04999999999995" y1="383.33333333333337" x2="299.7" y2="383.33333333333337"/>
<line x1="299.7" y1="400.0" x2="299.7" y2="416.6666666666667"/>
<line x1="283.04999999999995" y1="433.33333333333337" x2="299.7" y2="433.33333333333337"/>
<line x1="299.7" y1="433.33333333333337" x2="299.7" y2="450.00000000000006"/>
<line x1="299.7" y1="450.00000000000006" x2="299.7" y2="466.6666666666667"/>
<line x1="283.04999999999995" y1="483.33333333333337" x2="299.7" y2="483.33333333333337"/>
<line x1="283.04999999999995" y1="500.00000000000006" x2="299.7" y2="500.00000000000006"/>
<line x1="299.7" y1="16.666666666666668" x2="316.34999999999997" y2="16.666666666666668"/>
<line x1="299.7" y1="33.333333333333336" x2="316.34999999999997" y2="33.333333333333336"/>
<line x1="299.7" y1="50.0" x2="316.34999999999997" y2="50.0"/>
<line x1="299.7" y1="66.66666666666667" x2="316.34999999999997" y2="66.66666666666667"/>
<line x1="316.34999999999997" y1="66.66666666666667" x2="316.34999999999997" y2="83.33333333333334"/>
<line x1="299.7" y1="100.0" x2="316.34999999999997" y2="100.0"/>
<line x1="299.7" y1="133.33333333333334" x2="316.34999999999997" y2="133.33333333333334"/>
<line x1="316.34999999999997" y1="116.66666666666667" x2="316.34999999999997" y2="133.33333333333334"/>
<line x1="299.7" y1="150.0" x2="316.34999999999997" y2="150.0"/>
<line x1="316.34999999999997" y1="150.0" x2="316.34999999999997" y2="166.66666666666669"/>
<line x1="299.7" y1="183.33333333333334" x2="316.34999999999997" y2="183.33333333333334"/>
<line x1="316.34999999999997" y1="166.66666666666669" x2="316.34999999999997" y2="183.33333333333334"/>
<line x1="316.34999999999997" y1="200.0" x2="316.34999999999997" y2="216.66666666666669"/>
<line x1="316.34999999999997" y1="216.66666666666669" x2="316.34999999999997" y2="233.33333333333334"/>
<line x1="299.7" y1="250.00000000000003" x2="316.34999999999997" y2="250.00000000000003"/>
<line x1="316.34999999999997" y1="233.33333333333334" x2="316.34999999999997" y2="250.00000000000003"/>
<line x1="316.34999999999997" y1="250.00000000000003" x2="316.34999999999997" y2="266.6666666666667"/>
<line x1="299.7" y1="283.33333333333337" x2="316.34999999999997" y2="283.33333333333337"/>
<line x1="316.34999999999997" y1="283.33333333333337" x2="316.34999999999997" y2="300.0"/>
<line x1="299.7" y1="316.6666666666667" x2="316.34999999999997" y2="316.6666666666667"/>
<line x1="316.34999999999997" y1="300.0" x2="316.34999999999997" y2="316.6666666666667"/>
<line x1="299.7" y1="333.33333333333337" x2="316.34999999999997" y2="333.33333333333337"/>
<line x1="299.7" y1="350.0" x2="316.34999999999997" y2="350.0"/>
<line x1="299.7" y1="383.33333333333337" x2="316.34999999999997" y2="383.33333333333337"/>
<line x1="316.34999999999997" y1="366.6666666666667" x2="316.34999999999997" y2="383.33333333333337"/>
<line x1="299.7" y1="400.0" x2="316.34999999999997" y2="400.0"/>
<line x1="299.7" y1="416.6666666666667" x2="316.34999999999997" y2="416.6666666666667"/>
<line x1="299.7" y1="433.33333333333337" x2="316.34999999999997" y2="433.33333333333337"/>
<line x1="299.7" y1="466.6666666666667" x2="316.34999999999997" y2="466.6666666666667"/>
<line x1="299.7" y1="483.33333333333337" x2="316.34999999999997" y2="483.33333333333337"/>
<line x1="316.34999999999997" y1="466.6666666666667" x2="316.34999999999997" y2="483.33333333333337"/>
<line x1="299.7" y1="500.00000000000006" x2="316.34999999999997" y2="500.00000000000006"/>
<line x1="333.0" y1="0.0" x2="333.0" y2="16.666666666666668"/>
<line x1="316.34999999999997" y1="33.333333333333336" x2="333.0" y2="33.333333333333336"/>
<line x1="333.0" y1="16.666666666666668" x2="333.0" y2="33.333333333333336"/>
<line x1="333.0" y1="50.0" x2="333.0" y2="66.66666666666667"/>
<line x1="316.34999999999997" y1="83.33333333333334" x2="333.0" y2="83.33333333333334"/>
<line x1="333.0" y1="66.66666666666667" x2="333.0" y2="83.33333333333334"/>
<line x1="333.0" y1="83.33333333333334" x2="333.0" y2="100.0"/>
<line x1="333.0" y1="100.0" x2="333.0" y2="116.66666666666667"/>
<line x1="316.34999999999997" y1="133.33333333333334" x2="333.0" y2="133.33333333333334"/>
<line x1="333.0" y1="116.66666666666667" x2="333.0" y2="133.33333333333334"/>
<line x1="333.0" y1="133.33333333333334" x2="333.0" y2="150.0"/>
<line x1="333.0" y1="150.0" x2="333.0" y2="166.66666666666669"/>
<line x1="333.0" y1="166.66666666666669" x2="333.0" y2="183.33333333333334"/>
<line x1="333.0" y1="183.33333333333334" x2="333.0" y2="200.0"/>
<line x1="333.0" y1="200.0" x2="333.0" y2="216.66666666666669"/>
<line x1="333.0" y1="216.66666666666669" x2="333.0" y2="233.33333333333334"/>
<line x1="333.0" y1="233.33333333333334" x2="333.0" y2="250.00000000000003"/>
<line x1="316.34999999999997" y1="266.6666666666667" x2="333.0" y2="266.6666666666667"/>
<line x1="333.0" y1="250.00000000000003" x2="333.0" y2="266.6666666666667"/>
<line x1="333.0" y1="266.6666666666667" x2="333.0" y2="283.33333333333337"/>
<line x1="333.0" y1="283.33333333333337" x2="333.0" y2="300.0"/>
<line x1="333.0" y1="300.0" x2="333.0" y2="316.6666666666667"/>
<line x1="316.34999999999997" y1="333.33333333333337" x2="333.0" y2="333.33333333333337"/>
<line x1="333.0" y1="316.6666666666667" x2="333.0" y2="333.33333333333337"/>
<line x1="333.0" y1="333.33333333333337" x2="333.0" y2="350.0"/>
<line x1="333.0" y1="350.0" x2="333.0" y2="366.6666666666667"/>
<line x1="333.0" y1="366.6666666666667" x2="333.0" y2="383.33333333333337"/>
<line x1="316.34999999999997" y1="400.0" x2="333.0" y2="400.0"/>
<line x1="333.0" y1="383.33333333333337" x2="333.0" y2="400.0"/>
<line x1="333.0" y1="400.0" x2="333.0" y2="416.6666666666667"/>
<line x1="333.0" y1="416.6666666666667" x2="333.0" y2="433.33333333333337"/>
<line x1="316.34999999999997" y1="450.00000000000006" x2="333.0" y2="450.00000000000006"/>
<line x1="333.0" y1="433.33333333333337" x2="333.0" y2="450.00000000000006"/>
<line x1="333.0" y1="450.00000000000006" x2="333.0" y2="466.6666666666667"/>
<line x1="333.0" y1="466.6666666666667" x2="333.0" y2="483.33333333333337"/>
<line x1="316.34999999999997" y1="500.00000000000006" x2="333.0" y2="500.00000000000006"/>
<line x1="333.0" y1="483.33333333333337" x2="333.0" y2="500.00000000000006"/>
<line x1="0" y1="0" x2="333" y2="0"/>
<line x1="0" y1="0" x2="0" y2="500"/>
</svg>
