<?xml version="1.0" encoding="utf-8"?>
<svg xmlns="http://www.w3.org/2000/svg"
    xmlns:xlink="http://www.w3.org/1999/xlink"
    width="520" height="520" viewBox="-10 -10 520 520">
<defs>
<style type="text/css"><![CDATA[
line {
    stroke: #FF1493;
    stroke-linecap: square;
    stroke-width: 5;
}
]]></style>
</defs>
<line x1="0.0" y1="25.0" x2="16.666666666666668" y2="25.0"/>
<line x1="16.666666666666668" y1="50.0" x2="16.666666666666668" y2="75.0"/>
<line x1="0.0" y1="100.0" x2="16.666666666666668" y2="100.0"/>
<line x1="16.666666666666668" y1="125.0" x2="16.666666666666668" y2="150.0"/>
<line x1="16.666666666666668" y1="150.0" x2="16.666666666666668" y2="175.0"/>
<line x1="0.0" y1="200.0" x2="16.666666666666668" y2="200.0"/>
<line x1="0.0" y1="250.0" x2="16.666666666666668" y2="250.0"/>
<line x1="0.0" y1="300.0" x2="16.666666666666668" y2="300.0"/>
<line x1="16.666666666666668" y1="325.0" x2="16.666666666666668" y2="350.0"/>
<line x1="16.666666666666668" y1="350.0" x2="16.666666666666668" y2="375.0"/>
<line x1="0.0" y1="400.0" x2="16.666666666666668" y2="400.0"/>
<line x1="16.666666666666668" y1="400.0" x2="16.666666666666668" y2="425.0"/>
<line x1="16.666666666666668" y1="425.0" x2="16.666666666666668" y2="450.0"/>
<line x1="0.0" y1="500.0" x2="16.666666666666668" y2="500.0"/>
<line x1="16.666666666666668" y1="25.0" x2="33.333333333333336" y2="25.0"/>
<line x1="16.666666666666668" y1="50.0" x2="33.333333333333336" y2="50.0"/>
<line x1="16.666666666666668" y1="100.0" x2="33.333333333333336" y2="100.0"/>
<line x1="33.333333333333336" y1="75.0" x2="33.333333333333336" y2="100.0"/>
<line x1="16.666666666666668" y1="150.0" x2="33.333333333333336" y2="150.0"/>
<line x1="16.666666666666668" y1="175.0" x2="33.333333333333336" y2="175.0"/>
<line x1="16.666666666666668" y1="200.0" x2="33.333333333333336" y2="200.0"/>
<line x1="16.666666666666668" y1="225.0" x2="33.333333333333336" y2="225.0"/>
<line x1="33.333333333333336" y1="225.0" x2="33.333333333333336" y2="250.0"/>
<line x1="16.666666666666668" y1="275.0" x2="33.333333333333336" y2="275.0"/>
<line x1="33.333333333333336" y1="250.0" x2="33.333333333333336" y2="275.0"/>
<line x1="33.333333333333336" y1="275.0" x2="33.333333333333336" y2="300.0"/>
<line x1="16.666666666666668" y1="325.0" x2="33.333333333333336" y2="325.0"/>
<line x1="33.333333333333336" y1="300.0" x2="33.333333333333336" y2="325.0"/>
<line x1="33.333333333333336" y1="350.0" x2="33.333333333333336" y2="375.0"/>
<line x1="16.666666666666668" y1="400.0" x2="33.333333333333336" y2="400.0"/>
<line x1="33.333333333333336" y1="375.0" x2="33.333333333333336" y2="400.0"/>
<line x1="16.666666666666668" y1="450.0" x2="33.333333333333336" y2="450.0"/>
<line x1="16.666666666666668" y1="475.0" x2="33.333333333333336" y2="475.0"/>
<line x1="33.333333333333336" y1="450.0" x2="33.333333333333336" y2="475.0"/>
<line x1="33.333333333333336" y1="475.0" x2="33.333333333333336" y2="500.0"/>
<line x1="50.0" y1="0.0" x2="50.0" y2="25.0"/>
<line x1="33.333333333333336" y1="50.0" x2="50.0" y2="50.0"/>
<line x1="50.0" y1="25.0" x2="50.0" y2="50.0"/>
<line x1="33.333333333333336" y1="75.0" x2="50.0" y2="75.0"/>
<line x1="50.0" y1="75.0" x2="50.0" y2="100.0"/>
<line x1="33.333333333333336" y1="125.0" x2="50.0" y2="125.0"/>
<line x1="50.0" y1="100.0" x2="50.0" y2="125.0"/>
<line x1="33.333333333333336" y1="150.0" x2="50.0" y2="150.0"/>
<line x1="33.333333333333336" y1="200.0" x2="50.0" y2="200.0"/>
<line x1="50.0" y1="175.0" x2="50.0" y2="200.0"/>
<line x1="50.0" y1="200.0" x2="50.0" y2="225.0"/>
<line x1="33.333333333333336" y1="250.0" x2="50.0" y2="250.0"/>
<line x1="33.333333333333336" y1="300.0" x2="50.0" y2="300.0"/>
<line x1="33.333333333333336" y1="350.0" x2="50.0" y2="350.0"/>
<line x1="50.0" y1="325.0" x2="50.0" y2="350.0"/>
<line x1="33.333333333333336" y1="400.0" x2="50.0" y2="400.0"/>
<line x1="33.333333333333336" y1="425.0" x2="50.0" y2="425.0"/>
<line x1="50.0" y1="425.0" x2="50.0" y2="450.0"/>
<line x1="33.333333333333336" y1="475.0" x2="50.0" y2="475.0"/>
<line x1="50.0" y1="25.0" x2="66.66666666666667" y2="25.0"/>
<line x1="50.0" y1="75.0" x2="66.66666666666667" y2="75.0"/>
<line x1="66.66666666666667" y1="50.0" x2="66.66666666666667" y2="75.0"/>
<line x1="66.66666666666667" y1="100.0" x2="66.66666666666667" y2="125.0"/>
<line x1="50.0" y1="150.0" x2="66.66666666666667" y2="150.0"/>
<line x1="66.66666666666667" y1="125.0" x2="66.66666666666667" y2="150.0"/>
<line x1="66.66666666666667" y1="150.0" x2="66.66666666666667" y2="175.0"/>
<line x1="66.66666666666667" y1="175.0" x2="66.66666666666667" y2="200.0"/>
<line x1="66.66666666666667" y1="200.0" x2="66.66666666666667" y2="225.0"/>
<line x1="50.0" y1="250.0" x2="66.66666666666667" y2="250.0"/>
<line x1="66.66666666666667" y1="225.0" x2="66.66666666666667" y2="250.0"/>
<line x1="50.0" y1="275.0" x2="66.66666666666667" y2="275.0"/>
<line x1="50.0" y1="300.0" x2="66.66666666666667" y2="300.0"/>
<line x1="66.66666666666667" y1="275.0" x2="66.66666666666667" y2="300.0"/>
<line x1="66.66666666666667" y1="300.0" x2="66.66666666666667" y2="325.0"/>
<line x1="66.66666666666667" y1="325.0" x2="66.66666666666667" y2="350.0"/>
<line x1="50.0" y1="375.0" x2="66.66666666666667" y2="375.0"/>
<line x1="66.66666666666667" y1="350.0" x2="66.66666666666667" y2="375.0"/>
<line x1="50.0" y1="400.0" x2="66.66666666666667" y2="400.0"/>
<line x1="50.0" y1="425.0" x2="66.66666666666667" y2="425.0"/>
<line x1="50.0" y1="450.0" x2="66.66666666666667" y2="450.0"/>
<line x1="50.0" y1="475.0" x2="66.66666666666667" y2="475.0"/>
<line x1="66.66666666666667" y1="475.0" x2="66.66666666666667" y2="500.0"/>
<line x1="66.66666666666667" y1="50.0" x2="83.33333333333334" y2="50.0"/>
<line x1="83.33333333333334" y1="25.0" x2="83.33333333333334" y2="50.0"/>
<line x1="66.66666666666667" y1="100.0" x2="83.33333333333334" y2="100.0"/>
<line x1="83.33333333333334" y1="75.0" x2="83.33333333333334" y2="100.0"/>
<line x1="83.33333333333334" y1="150.0" x2="83.33333333333334" y2="175.0"/>
<line x1="83.33333333333334" y1="175.0" x2="83.33333333333334" y2="200.0"/>
<line x1="66.66666666666667" y1="225.0" x2="83.33333333333334" y2="225.0"/>
<line x1="66.66666666666667" y1="275.0" x2="83.33333333333334" y2="275.0"/>
<line x1="83.33333333333334" y1="300.0" x2="83.33333333333334" y2="325.0"/>
<line x1="66.66666666666667" y1="375.0" x2="83.33333333333334" y2="375.0"/>
<line x1="83.33333333333334" y1="350.0" x2="83.33333333333334" y2="375.0"/>
<line x1="66.66666666666667" y1="400.0" x2="83.33333333333334" y2="400.0"/>
<line x1="66.66666666666667" y1="425.0" x2="83.33333333333334" y2="425.0"/>
<line x1="66.66666666666667" y1="475.0" x2="83.33333333333334" y2="475.0"/>
<line x1="83.33333333333334" y1="450.0" x2="83.33333333333334" y2="475.0"/>
<line x1="100.0" y1="0.0" x2="100.0" y2="25.0"/>
<line x1="100.0" y1="25.0" x2="100.0" y2="50.0"/>
<line x1="83.33333333333334" y1="75.0" x2="100.0" y2="75.0"/>
<line x1="100.0" y1="50.0" x2="100.0" y2="75.0"/>
<line x1="83.33333333333334" y1="100.0" x2="100.0" y2="100.0"/>
<line x1="83.33333333333334" y1="125.0" x2="100.0" y2="125.0"/>
<line x1="100.0" y1="125.0" x2="100.0" y2="150.0"/>
<line x1="83.33333333333334" y1="175.0" x2="100.0" y2="175.0"/>
<line x1="83.33333333333334" y1="225.0" x2="100.0" y2="225.0"/>
<line x1="100.0" y1="200.0" x2="100.0" y2="225.0"/>
<line x1="83.33333333333334" y1="250.0" x2="100.0" y2="250.0"/>
<line x1="100.0" y1="225.0" x2="100.0" y2="250.0"/>
<line x1="100.0" y1="250.0" x2="100.0" y2="275.0"/>
<line x1="83.33333333333334" y1="300.0" x2="100.0" y2="300.0"/>
<line x1="100.0" y1="275.0" x2="100.0" y2="300.0"/>
<line x1="83.33333333333334" y1="350.0" x2="100.0" y2="350.0"/>
<line x1="83.33333333333334" y1="400.0" x2="100.0" y2="400.0"/>
<line x1="100.0" y1="375.0" x2="100.0" y2="400.0"/>
<line x1="83.33333333333334" y1="425.0" x2="100.0" y2="425.0"/>
<line x1="100.0" y1="425.0" x2="100.0" y2="450.0"/>
<line x1="100.0" y1="450.0" x2="100.0" y2="475.0"/>
<line x1="83.33333333333334" y1="500.0" x2="100.0" y2="500.0"/>
<line x1="100.0" y1="475.0" x2="100.0" y2="500.0"/>
<line x1="100.0" y1="50.0" x2="116.66666666666667" y2="50.0"/>
<line x1="100.0" y1="100.0" x2="116.66666666666667" y2="100.0"/>
<line x1="116.66666666666667" y1="100.0" x2="116.66666666666667" y2="125.0"/>
<line x1="100.0" y1="150.0" x2="116.66666666666667" y2="150.0"/>
<line x1="100.0" y1="175.0" x2="116.66666666666667" y2="175.0"/>
<line x1="116.66666666666667" y1="200.0" x2="116.66666666666667" y2="225.0"/>
<line x1="116.66666666666667" y1="225.0" x2="116.66666666666667" y2="250.0"/>
<line x1="116.66666666666667" y1="250.0" x2="116.66666666666667" y2="275.0"/>
<line x1="100.0" y1="300.0" x2="116.66666666666667" y2="300.0"/>
<line x1="100.0" y1="325.0" x2="116.66666666666667" y2="325.0"/>
<line x1="100.0" y1="350.0" x2="116.66666666666667" y2="350.0"/>
<line x1="116.66666666666667" y1="325.0" x2="116.66666666666667" y2="350.0"/>
<line x1="116.66666666666667" y1="350.0" x2="116.66666666666667" y2="375.0"/>
<line x1="100.0" y1="400.0" x2="116.66666666666667" y2="400.0"/>
<line x1="100.0" y1="425.0" x2="116.66666666666667" y2="425.0"/>
<line x1="116.66666666666667" y1="450.0" x2="116.66666666666667" y2="475.0"/>
<line x1="100.0" y1="500.0" x2="116.66666666666667" y2="500.0"/>
<line x1="116.66666666666667" y1="25.0" x2="133.33333333333334" y2="25.0"/>
<line x1="133.33333333333334" y1="25.0" x2="133.33333333333334" y2="50.0"/>
<line x1="116.66666666666667" y1="75.0" x2="133.33333333333334" y2="75.0"/>
<line x1="133.33333333333334" y1="50.0" x2="133.33333333333334" y2="75.0"/>
<line x1="133.33333333333334" y1="75.0" x2="133.33333333333334" y2="100.0"/>
<line x1="133.33333333333334" y1="100.0" x2="133.33333333333334" y2="125.0"/>
<line x1="116.66666666666667" y1="150.0" x2="133.33333333333334" y2="150.0"/>
<line x1="116.66666666666667" y1="175.0" x2="133.33333333333334" y2="175.0"/>
<line x1="116.66666666666667" y1="200.0" x2="133.33333333333334" y2="200.0"/>
<line x1="133.33333333333334" y1="175.0" x2="133.33333333333334" y2="200.0"/>
<line x1="116.66666666666667" y1="250.0" x2="133.33333333333334" y2="250.0"/>
<line x1="133.33333333333334" y1="250.0" x2="133.33333333333334" y2="275.0"/>
<line x1="133.33333333333334" y1="275.0" x2="133.33333333333334" y2="300.0"/>
<line x1="116.66666666666667" y1="325.0" x2="133.33333333333334" y2="325.0"/>
<line x1="133.33333333333334" y1="300.0" x2="133.33333333333334" y2="325.0"/>
<line x1="133.33333333333334" y1="350.0" x2="133.33333333333334" y2="375.0"/>
<line x1="116.66666666666667" y1="400.0" x2="133.33333333333334" y2="400.0"/>
<line x1="133.33333333333334" y1="375.0" x2="133.33333333333334" y2="400.0"/>
<line x1="116.66666666666667" y1="425.0" x2="133.33333333333334" y2="425.0"/>
<line x1="133.33333333333334" y1="425.0" x2="133.33333333333334" y2="450.0"/>
<line x1="116.66666666666667" y1="475.0" x2="133.33333333333334" y2="475.0"/>
<line x1="133.33333333333334" y1="475.0" x2="133.33333333333334" y2="500.0"/>
<line x1="150.0" y1="0.0" x2="150.0" y2="25.0"/>
<line x1="133.33333333333334" y1="50.0" x2="150.0" y2="50.0"/>
<line x1="150.0" y1="25.0" x2="150.0" y2="50.0"/>
<line x1="150.0" y1="75.0" x2="150.0" y2="100.0"/>
<line x1="133.33333333333334" y1="125.0" x2="150.0" y2="125.0"/>
<line x1="133.33333333333334" y1="150.0" x2="150.0" y2="150.0"/>
<line x1="133.33333333333334" y1="175.0" x2="150.0" y2="175.0"/>
<line x1="133.33333333333334" y1="225.0" x2="150.0" y2="225.0"/>
<line x1="150.0" y1="200.0" x2="150.0" y2="225.0"/>
<line x1="150.0" y1="225.0" x2="150.0" y2="250.0"/>
<line x1="150.0" y1="250.0" x2="150.0" y2="275.0"/>
<line x1="150.0" y1="275.0" x2="150.0" y2="300.0"/>
<line x1="150.0" y1="300.0" x2="150.0" y2="325.0"/>
<line x1="133.33333333333334" y1="350.0" x2="150.0" y2="350.0"/>
<line x1="150.0" y1="325.0" x2="150.0" y2="350.0"/>
<line x1="150.0" y1="400.0" x2="150.0" y2="425.0"/>
<line x1="133.33333333333334" y1="450.0" x2="150.0" y2="450.0"/>
<line x1="150.0" y1="425.0" x2="150.0" y2="450.0"/>
<line x1="150.0" y1="450.0" x2="150.0" y2="475.0"/>
<line x1="150.0" y1="475.0" x2="150.0" y2="500.0"/>
<line x1="166.66666666666669" y1="25.0" x2="166.66666666666669" y2="50.0"/>
<line x1="150.0" y1="75.0" x2="166.66666666666669" y2="75.0"/>
<line x1="166.66666666666669" y1="50.0" x2="166.66666666666669" y2="75.0"/>
<line x1="150.0" y1="100.0" x2="166.66666666666669" y2="100.0"/>
<line x1="150.0" y1="125.0" x2="166.66666666666669" y2="125.0"/>
<line x1="150.0" y1="150.0" x2="166.66666666666669" y2="150.0"/>
<line x1="166.66666666666669" y1="125.0" x2="166.66666666666669" y2="150.0"/>
<line x1="150.0" y1="175.0" x2="166.66666666666669" y2="175.0"/>
<line x1="150.0" y1="200.0" x2="166.66666666666669" y2="200.0"/>
<line x1="166.66666666666669" y1="225.0" x2="166.66666666666669" y2="250.0"/>
<line x1="150.0" y1="325.0" x2="166.66666666666669" y2="325.0"/>
<line x1="166.66666666666669" y1="300.0" x2="166.66666666666669" y2="325.0"/>
<line x1="150.0" y1="375.0" x2="166.66666666666669" y2="375.0"/>
<line x1="166.66666666666669" y1="350.0" x2="166.66666666666669" y2="375.0"/>
<line x1="166.66666666666669" y1="375.0" x2="166.66666666666669" y2="400.0"/>
<line x1="150.0" y1="425.0" x2="166.66666666666669" y2="425.0"/>
<line x1="166.66666666666669" y1="450.0" x2="166.66666666666669" y2="475.0"/>
<line x1="150.0" y1="500.0" x2="166.66666666666669" y2="500.0"/>
<line x1="166.66666666666669" y1="50.0" x2="183.33333333333334" y2="50.0"/>
<line x1="166.66666666666669" y1="100.0" x2="183.33333333333334" y2="100.0"/>
<line x1="183.33333333333334" y1="75.0" x2="183.33333333333334" y2="100.0"/>
<line x1="183.33333333333334" y1="100.0" x2="183.33333333333334" y2="125.0"/>
<line x1="183.33333333333334" y1="125.0" x2="183.33333333333334" y2="150.0"/>
<line x1="166.66666666666669" y1="175.0" x2="183.33333333333334" y2="175.0"/>
<line x1="166.66666666666669" y1="200.0" x2="183.33333333333334" y2="200.0"/>
<line x1="166.66666666666669" y1="225.0" x2="183.33333333333334" y2="225.0"/>
<line x1="166.66666666666669" y1="275.0" x2="183.33333333333334" y2="275.0"/>
<line x1="183.33333333333334" y1="250.0" x2="183.33333333333334" y2="275.0"/>
<line x1="166.66666666666669" y1="300.0" x2="183.33333333333334" y2="300.0"/>
<line x1="183.33333333333334" y1="325.0" x2="183.33333333333334" y2="350.0"/>
<line x1="166.66666666666669" y1="375.0" x2="183.33333333333334" y2="375.0"/>
<line x1="183.33333333333334" y1="350.0" x2="183.33333333333334" y2="375.0"/>
<line x1="166.66666666666669" y1="425.0" x2="183.33333333333334" y2="425.0"/>
<line x1="183.33333333333334" y1="400.0" x2="183.33333333333334" y2="425.0"/>
<line x1="183.33333333333334" y1="425.0" x2="183.33333333333334" y2="450.0"/>
<line x1="166.66666666666669" y1="475.0" x2="183.33333333333334" y2="475.0"/>
<line x1="166.66666666666669" y1="500.0" x2="183.33333333333334" y2="500.0"/>
<line x1="183.33333333333334" y1="25.0" x2="200.0" y2="25.0"/>
<line x1="200.0" y1="0.0" x2="200.0" y2="25.0"/>
<line x1="183.33333333333334" y1="50.0" x2="200.0" y2="50.0"/>
<line x1="200.0" y1="75.0" x2="200.0" y2="100.0"/>
<line x1="200.0" y1="100.0" x2="200.0" y2="125.0"/>
<line x1="200.0" y1="125.0" x2="200.0" y2="150.0"/>
<line x1="183.33333333333334" y1="175.0" x2="200.0" y2="175.0"/>
<line x1="200.0" y1="150.0" x2="200.0" y2="175.0"/>
<line x1="183.33333333333334" y1="200.0" x2="200.0" y2="200.0"/>
<line x1="183.33333333333334" y1="225.0" x2="200.0" y2="225.0"/>
<line x1="200.0" y1="225.0" x2="200.0" y2="250.0"/>
<line x1="183.33333333333334" y1="275.0" x2="200.0" y2="275.0"/>
<line x1="183.33333333333334" y1="300.0" x2="200.0" y2="300.0"/>
<line x1="200.0" y1="275.0" x2="200.0" y2="300.0"/>
<line x1="183.33333333333334" y1="325.0" x2="200.0" y2="325.0"/>
<line x1="183.33333333333334" y1="375.0" x2="200.0" y2="375.0"/>
<line x1="200.0" y1="375.0" x2="200.0" y2="400.0"/>
<line x1="200.0" y1="400.0" x2="200.0" y2="425.0"/>
<line x1="200.0" y1="425.0" x2="200.0" y2="450.0"/>
<line x1="183.33333333333334" y1="475.0" x2="200.0" y2="475.0"/>
<line x1="200.0" y1="450.0" x2="200.0" y2="475.0"/>
<line x1="200.0" y1="475.0" x2="200.0" y2="500.0"/>
<line x1="200.0" y1="50.0" x2="216.66666666666669" y2="50.0"/>
<line x1="216.66666666666669" y1="25.0" x2="216.66666666666669" y2="50.0"/>
<line x1="200.0" y1="100.0" x2="216.66666666666669" y2="100.0"/>
<line x1="216.66666666666669" y1="75.0" x2="216.66666666666669" y2="100.0"/>
<line x1="216.66666666666669" y1="125.0" x2="216.66666666666669" y2="150.0"/>
<line x1="216.66666666666669" y1="150.0" x2="216.66666666666669" y2="175.0"/>
<line x1="200.0" y1="200.0" x2="216.66666666666669" y2="200.0"/>
<line x1="216.66666666666669" y1="175.0" x2="216.66666666666669" y2="200.0"/>
<line x1="216.66666666666669" y1="200.0" x2="216.66666666666669" y2="225.0"/>
<line x1="200.0" y1="250.0" x2="216.66666666666669" y2="250.0"/>
<line x1="216.66666666666669" y1="250.0" x2="216.66666666666669" y2="275.0"/>
<line x1="216.66666666666669" y1="275.0" x2="216.66666666666669" y2="300.0"/>
<line x1="200.0" y1="325.0" x2="216.66666666666669" y2="325.0"/>
<line x1="216.66666666666669" y1="300.0" x2="216.66666666666669" y2="325.0"/>
<line x1="200.0" y1="350.0" x2="216.66666666666669" y2="350.0"/>
<line x1="200.0" y1="375.0" x2="216.66666666666669" y2="375.0"/>
<line x1="200.0" y1="425.0" x2="216.66666666666669" y2="425.0"/>
<line x1="216.66666666666669" y1="450.0" x2="216.66666666666669" y2="475.0"/>
<line x1="216.66666666666669" y1="475.0" x2="216.66666666666669" y2="500.0"/>
<line x1="216.66666666666669" y1="50.0" x2="233.33333333333334" y2="50.0"/>
<line x1="216.66666666666669" y1="75.0" x2="233.33333333333334" y2="75.0"/>
<line x1="233.33333333333334" y1="50.0" x2="233.33333333333334" y2="75.0"/>
<line x1="216.66666666666669" y1="125.0" x2="233.33333333333334" y2="125.0"/>
<line x1="233.33333333333334" y1="100.0" x2="233.33333333333334" y2="125.0"/>
<line x1="233.33333333333334" y1="125.0" x2="233.33333333333334" y2="150.0"/>
<line x1="233.33333333333334" y1="150.0" x2="233.33333333333334" y2="175.0"/>
<line x1="233.33333333333334" y1="175.0" x2="233.33333333333334" y2="200.0"/>
<line x1="216.66666666666669" y1="225.0" x2="233.33333333333334" y2="225.0"/>
<line x1="233.33333333333334" y1="225.0" x2="233.33333333333334" y2="250.0"/>
<line x1="233.33333333333334" y1="250.0" x2="233.33333333333334" y2="275.0"/>
<line x1="216.66666666666669" y1="300.0" x2="233.33333333333334" y2="300.0"/>
<line x1="216.66666666666669" y1="350.0" x2="233.33333333333334" y2="350.0"/>
<line x1="233.33333333333334" y1="325.0" x2="233.33333333333334" y2="350.0"/>
<line x1="216.66666666666669" y1="375.0" x2="233.33333333333334" y2="375.0"/>
<line x1="216.66666666666669" y1="400.0" x2="233.33333333333334" y2="400.0"/>
<line x1="216.66666666666669" y1="425.0" x2="233.33333333333334" y2="425.0"/>
<line x1="216.66666666666669" y1="475.0" x2="233.33333333333334" y2="475.0"/>
<line x1="216.66666666666669" y1="500.0" x2="233.33333333333334" y2="500.0"/>
<line x1="233.33333333333334" y1="25.0" x2="250.00000000000003" y2="25.0"/>
<line x1="250.00000000000003" y1="0.0" x2="250.00000000000003" y2="25.0"/>
<line x1="250.00000000000003" y1="25.0" x2="250.00000000000003" y2="50.0"/>
<line x1="233.33333333333334" y1="75.0" x2="250.00000000000003" y2="75.0"/>
<line x1="250.00000000000003" y1="75.0" x2="250.00000000000003" y2="100.0"/>
<line x1="250.00000000000003" y1="100.0" x2="250.00000000000003" y2="125.0"/>
<line x1="233.33333333333334" y1="150.0" x2="250.00000000000003" y2="150.0"/>
<line x1="250.00000000000003" y1="175.0" x2="250.00000000000003" y2="200.0"/>
<line x1="250.00000000000003" y1="200.0" x2="250.00000000000003" y2="225.0"/>
<line x1="233.33333333333334" y1="250.0" x2="250.00000000000003" y2="250.0"/>
<line x1="233.33333333333334" y1="300.0" x2="250.00000000000003" y2="300.0"/>
<line x1="250.00000000000003" y1="275.0" x2="250.00000000000003" y2="300.0"/>
<line x1="233.33333333333334" y1="325.0" x2="250.00000000000003" y2="325.0"/>
<line x1="233.33333333333334" y1="375.0" x2="250.00000000000003" y2="375.0"/>
<line x1="250.00000000000003" y1="350.0" x2="250.00000000000003" y2="375.0"/>
<line x1="233.33333333333334" y1="400.0" x2="250.00000000000003" y2="400.0"/>
<line x1="233.33333333333334" y1="425.0" x2="250.00000000000003" y2="425.0"/>
<line x1="233.33333333333334" y1="450.0" x2="250.00000000000003" y2="450.0"/>
<line x1="250.00000000000003" y1="425.0" x2="250.00000000000003" y2="450.0"/>
<line x1="233.33333333333334" y1="475.0" x2="250.00000000000003" y2="475.0"/>
<line x1="266.6666666666667" y1="25.0" x2="266.6666666666667" y2="50.0"/>
<line x1="250.00000000000003" y1="75.0" x2="266.6666666666667" y2="75.0"/>
<line x1="266.6666666666667" y1="75.0" x2="266.6666666666667" y2="100.0"/>
<line x1="250.00000000000003" y1="125.0" x2="266.6666666666667" y2="125.0"/>
<line x1="250.00000000000003" y1="150.0" x2="266.6666666666667" y2="150.0"/>
<line x1="266.6666666666667" y1="175.0" x2="266.6666666666667" y2="200.0"/>
<line x1="250.00000000000003" y1="225.0" x2="266.6666666666667" y2="225.0"/>
<line x1="250.00000000000003" y1="250.0" x2="266.6666666666667" y2="250.0"/>
<line x1="266.6666666666667" y1="225.0" x2="266.6666666666667" y2="250.0"/>
<line x1="250.00000000000003" y1="275.0" x2="266.6666666666667" y2="275.0"/>
<line x1="250.00000000000003" y1="325.0" x2="266.6666666666667" y2="325.0"/>
<line x1="266.6666666666667" y1="300.0" x2="266.6666666666667" y2="325.0"/>
<line x1="266.6666666666667" y1="350.0" x2="266.6666666666667" y2="375.0"/>
<line x1="250.00000000000003" y1="400.0" x2="266.6666666666667" y2="400.0"/>
<line x1="266.6666666666667" y1="375.0" x2="266.6666666666667" y2="400.0"/>
<line x1="266.6666666666667" y1="400.0" x2="266.6666666666667" y2="425.0"/>
<line x1="266.6666666666667" y1="425.0" x2="266.6666666666667" y2="450.0"/>
<line x1="250.00000000000003" y1="475.0" x2="266.6666666666667" y2="475.0"/>
<line x1="266.6666666666667" y1="450.0" x2="266.6666666666667" y2="475.0"/>
<line x1="250.00000000000003" y1="500.0" x2="266.6666666666667" y2="500.0"/>
<line x1="266.6666666666667" y1="50.0" x2="283.33333333333337" y2="50.0"/>
<line x1="283.33333333333337" y1="50.0" x2="283.33333333333337" y2="75.0"/>
<line x1="283.33333333333337" y1="75.0" x2="283.33333333333337" y2="100.0"/>
<line x1="266.6666666666667" y1="125.0" x2="283.33333333333337" y2="125.0"/>
<line x1="283.33333333333337" y1="100.0" x2="283.33333333333337" y2="125.0"/>
<line x1="266.6666666666667" y1="150.0" x2="283.33333333333337" y2="150.0"/>
<line x1="266.6666666666667" y1="175.0" x2="283.33333333333337" y2="175.0"/>
<line x1="266.6666666666667" y1="200.0" x2="283.33333333333337" y2="200.0"/>
<line x1="283.33333333333337" y1="200.0" x2="283.33333333333337" y2="225.0"/>
<line x1="283.33333333333337" y1="225.0" x2="283.33333333333337" y2="250.0"/>
<line x1="266.6666666666667" y1="275.0" x2="283.33333333333337" y2="275.0"/>
<line x1="283.33333333333337" y1="250.0" x2="283.33333333333337" y2="275.0"/>
<line x1="266.6666666666667" y1="300.0" x2="283.33333333333337" y2="300.0"/>
<line x1="283.33333333333337" y1="300.0" x2="283.33333333333337" y2="325.0"/>
<line x1="266.6666666666667" y1="350.0" x2="283.33333333333337" y2="350.0"/>
<line x1="283.33333333333337" y1="325.0" x2="283.33333333333337" y2="350.0"/>
<line x1="283.33333333333337" y1="375.0" x2="283.33333333333337" y2="400.0"/>
<line x1="283.33333333333337" y1="400.0" x2="283.33333333333337" y2="425.0"/>
<line x1="283.33333333333337" y1="425.0" x2="283.33333333333337" y2="450.0"/>
<line x1="266.6666666666667" y1="475.0" x2="283.33333333333337" y2="475.0"/>
<line x1="283.33333333333337" y1="475.0" x2="283.33333333333337" y2="500.0"/>
<line x1="283.33333333333337" y1="25.0" x2="300.0" y2="25.0"/>
<line x1="300.0" y1="25.0" x2="300.0" y2="50.0"/>
<line x1="283.33333333333337" y1="75.0" x2="300.0" y2="75.0"/>
<line x1="300.0" y1="100.0" x2="300.0" y2="125.0"/>
<line x1="283.33333333333337" y1="150.0" x2="300.0" y2="150.0"/>
<line x1="300.0" y1="125.0" x2="300.0" y2="150.0"/>
<line x1="283.33333333333337" y1="175.0" x2="300.0" y2="175.0"/>
<line x1="283.33333333333337" y1="225.0" x2="300.0" y2="225.0"/>
<line x1="283.33333333333337" y1="275.0" x2="300.0" y2="275.0"/>
<line x1="300.0" y1="275.0" x2="300.0" y2="300.0"/>
<line x1="300.0" y1="300.0" x2="300.0" y2="325.0"/>
<line x1="300.0" y1="325.0" x2="300.0" y2="350.0"/>
<line x1="300.0" y1="350.0" x2="300.0" y2="375.0"/>
<line x1="283.33333333333337" y1="400.0" x2="300.0" y2="400.0"/>
<line x1="300.0" y1="375.0" x2="300.0" y2="400.0"/>
<line x1="300.0" y1="425.0" x2="300.0" y2="450.0"/>
<line x1="283.33333333333337" y1="475.0" x2="300.0" y2="475.0"/>
<line x1="300.0" y1="450.0" x2="300.0" y2="475.0"/>
<line x1="283.33333333333337" y1="500.0" x2="300.0" y2="500.0"/>
<line x1="300.0" y1="25.0" x2="316.6666666666667" y2="25.0"/>
<line x1="300.0" y1="75.0" x2="316.6666666666667" y2="75.0"/>
<line x1="316.6666666666667" y1="75.0" x2="316.6666666666667" y2="100.0"/>
<line x1="300.0" y1="125.0" x2="316.6666666666667" y2="125.0"/>
<line x1="300.0" y1="175.0" x2="316.6666666666667" y2="175.0"/>
<line x1="316.6666666666667" y1="150.0" x2="316.6666666666667" y2="175.0"/>
<line x1="300.0" y1="200.0" x2="316.6666666666667" y2="200.0"/>
<line x1="300.0" y1="225.0" x2="316.6666666666667" y2="225.0"/>
<line x1="300.0" y1="250.0" x2="316.6666666666667" y2="250.0"/>
<line x1="316.6666666666667" y1="250.0" x2="316.6666666666667" y2="275.0"/>
<line x1="316.6666666666667" y1="275.0" x2="316.6666666666667" y2="300.0"/>
<line x1="316.6666666666667" y1="300.0" x2="316.6666666666667" y2="325.0"/>
<line x1="316.6666666666667" y1="325.0" x2="316.6666666666667" y2="350.0"/>
<line x1="300.0" y1="375.0" x2="316.6666666666667" y2="375.0"/>
<line x1="300.0" y1="425.0" x2="316.6666666666667" y2="425.0"/>
<line x1="316.6666666666667" y1="400.0" x2="316.6666666666667" y2="425.0"/>
<line x1="316.6666666666667" y1="425.0" x2="316.6666666666667" y2="450.0"/>
<line x1="300.0" y1="475.0" x2="316.6666666666667" y2="475.0"/>
<line x1="316.6666666666667" y1="25.0" x2="333.33333333333337" y2="25.0"/>
<line x1="333.33333333333337" y1="0.0" x2="333.33333333333337" y2="25.0"/>
<line x1="316.6666666666667" y1="50.0" x2="333.33333333333337" y2="50.0"/>
<line x1="316.6666666666667" y1="75.0" x2="333.33333333333337" y2="75.0"/>
<line x1="316.6666666666667" y1="100.0" x2="333.33333333333337" y2="100.0"/>
<line x1="316.6666666666667" y1="125.0" x2="333.33333333333337" y2="125.0"/>
<line x1="333.33333333333337" y1="125.0" x2="333.33333333333337" y2="150.0"/>
<line x1="333.33333333333337" y1="150.0" x2="333.33333333333337" y2="175.0"/>
<line x1="316.6666666666667" y1="200.0" x2="333.33333333333337" y2="200.0"/>
<line x1="333.33333333333337" y1="175.0" x2="333.33333333333337" y2="200.0"/>
<line x1="333.33333333333337" y1="200.0" x2="333.33333333333337" y2="225.0"/>
<line x1="316.6666666666667" y1="250.0" x2="333.33333333333337" y2="250.0"/>
<line x1="333.33333333333337" y1="225.0" x2="333.33333333333337" y2="250.0"/>
<line x1="333.33333333333337" y1="250.0" x2="333.33333333333337" y2="275.0"/>
<line x1="333.33333333333337" y1="275.0" x2="333.33333333333337" y2="300.0"/>
<line x1="316.6666666666667" y1="325.0" x2="333.33333333333337" y2="325.0"/>
<line x1="316.6666666666667" y1="375.0" x2="333.33333333333337" y2="375.0"/>
<line x1="333.33333333333337" y1="350.0" x2="333.33333333333337" y2="375.0"/>
<line x1="333.33333333333337" y1="375.0" x2="333.33333333333337" y2="400.0"/>
<line x1="333.33333333333337" y1="400.0" x2="333.33333333333337" y2="425.0"/>
<line x1="316.6666666666667" y1="450.0" x2="333.33333333333337" y2="450.0"/>
<line x1="333.33333333333337" y1="475.0" x2="333.33333333333337" y2="500.0"/>
<line x1="333.33333333333337" y1="50.0" x2="350.0" y2="50.0"/>
<line x1="350.0" y1="25.0" x2="350.0" y2="50.0"/>
<line x1="333.33333333333337" y1="75.0" x2="350.0" y2="75.0"/>
<line x1="333.33333333333337" y1="100.0" x2="350.0" y2="100.0"/>
<line x1="333.33333333333337" y1="125.0" x2="350.0" y2="125.0"/>
<line x1="333.33333333333337" y1="175.0" x2="350.0" y2="175.0"/>
<line x1="333.33333333333337" y1="200.0" x2="350.0" y2="200.0"/>
<line x1="350.0" y1="250.0" x2="350.0" y2="275.0"/>
<line x1="350.0" y1="275.0" x2="350.0" y2="300.0"/>
<line x1="333.33333333333337" y1="325.0" x2="350.0" y2="325.0"/>
<line x1="333.33333333333337" y1="350.0" x2="350.0" y2="350.0"/>
<line x1="350.0" y1="350.0" x2="350.0" y2="375.0"/>
<line x1="333.33333333333337" y1="400.0" x2="350.0" y2="400.0"/>
<line x1="333.33333333333337" y1="450.0" x2="350.0" y2="450.0"/>
<line x1="350.0" y1="425.0" x2="350.0" y2="450.0"/>
<line x1="333.33333333333337" y1="475.0" x2="350.0" y2="475.0"/>
<line x1="350.0" y1="450.0" x2="350.0" y2="475.0"/>
<line x1="366.6666666666667" y1="0.0" x2="366.6666666666667" y2="25.0"/>
<line x1="350.0" y1="50.0" x2="366.6666666666667" y2="50.0"/>
<line x1="350.0" y1="75.0" x2="366.6666666666667" y2="75.0"/>
<line x1="350.0" y1="100.0" x2="366.6666666666667" y2="100.0"/>
<line x1="366.6666666666667" y1="100.0" x2="366.6666666666667" y2="125.0"/>
<line x1="350.0" y1="150.0" x2="366.6666666666667" y2="150.0"/>
<line x1="366.6666666666667" y1="125.0" x2="366.6666666666667" y2="150.0"/>
<line x1="350.0" y1="175.0" x2="366.6666666666667" y2="175.0"/>
<line x1="350.0" y1="225.0" x2="366.6666666666667" y2="225.0"/>
<line x1="366.6666666666667" y1="200.0" x2="366.6666666666667" y2="225.0"/>
<line x1="350.0" y1="250.0" x2="366.6666666666667" y2="250.0"/>
<line x1="350.0" y1="275.0" x2="366.6666666666667" y2="275.0"/>
<line x1="350.0" y1="325.0" x2="366.6666666666667" y2="325.0"/>
<line x1="366.6666666666667" y1="300.0" x2="366.6666666666667" y2="325.0"/>
<line x1="366.6666666666667" y1="325.0" x2="366.6666666666667" y2="350.0"/>
<line x1="350.0" y1="400.0" x2="366.6666666666667" y2="400.0"/>
<line x1="366.6666666666667" y1="375.0" x2="366.6666666666667" y2="400.0"/>
<line x1="366.6666666666667" y1="400.0" x2="366.6666666666667" y2="425.0"/>
<line x1="350.0" y1="450.0" x2="366.6666666666667" y2="450.0"/>
<line x1="350.0" y1="500.0" x2="366.6666666666667" y2="500.0"/>
<line x1="366.6666666666667" y1="475.0" x2="366.6666666666667" y2="500.0"/>
<line x1="366.6666666666667" y1="50.0" x2="383.33333333333337" y2="50.0"/>
<line x1="383.33333333333337" y1="25.0" x2="383.33333333333337" y2="50.0"/>
<line x1="383.33333333333337" y1="50.0" x2="383.33333333333337" y2="75.0"/>
<line x1="383.33333333333337" y1="75.0" x2="383.33333333333337" y2="100.0"/>
<line x1="383.33333333333337" y1="100.0" x2="383.33333333333337" y2="125.0"/>
<line x1="366.6666666666667" y1="150.0" x2="383.33333333333337" y2="150.0"/>
<line x1="366.6666666666667" y1="175.0" x2="383.33333333333337" y2="175.0"/>
<line x1="366.6666666666667" y1="200.0" x2="383.33333333333337" y2="200.0"/>
<line x1="383.33333333333337" y1="175.0" x2="383.33333333333337" y2="200.0"/>
<line x1="366.6666666666667" y1="250.0" x2="383.33333333333337" y2="250.0"/>
<line x1="383.33333333333337" y1="225.0" x2="383.33333333333337" y2="250.0"/>
<line x1="366.6666666666667" y1="275.0" x2="383.33333333333337" y2="275.0"/>
<line x1="366.6666666666667" y1="300.0" x2="383.33333333333337" y2="300.0"/>
<line x1="383.33333333333337" y1="325.0" x2="383.33333333333337" y2="350.0"/>
<line x1="366.6666666666667" y1="375.0" x2="383.33333333333337" y2="375.0"/>
<line x1="383.33333333333337" y1="350.0" x2="383.33333333333337" y2="375.0"/>
<line x1="383.33333333333337" y1="400.0" x2="383.33333333333337" y2="425.0"/>
<line x1="366.6666666666667" y1="450.0" x2="383.33333333333337" y2="450.0"/>
<line x1="383.33333333333337" y1="425.0" x2="383.33333333333337" y2="450.0"/>
<line x1="366.6666666666667" y1="475.0" x2="383.33333333333337" y2="475.0"/>
<line x1="383.33333333333337" y1="475.0" x2="383.33333333333337" y2="500.0"/>
<line x1="383.33333333333337" y1="25.0" x2="400.0" y2="25.0"/>
<line x1="400.0" y1="50.0" x2="400.0" y2="75.0"/>
<line x1="383.33333333333337" y1="100.0" x2="400.0" y2="100.0"/>
<line x1="400.0" y1="100.0" x2="400.0" y2="125.0"/>
<line x1="383.33333333333337" y1="150.0" x2="400.0" y2="150.0"/>
<line x1="400.0" y1="125.0" x2="400.0" y2="150.0"/>
<line x1="400.0" y1="150.0" x2="400.0" y2="175.0"/>
<line x1="383.33333333333337" y1="200.0" x2="400.0" y2="200.0"/>
<line x1="400.0" y1="200.0" x2="400.0" y2="225.0"/>
<line x1="383.33333333333337" y1="250.0" x2="400.0" y2="250.0"/>
<line x1="400.0" y1="250.0" x2="400.0" y2="275.0"/>
<line x1="383.33333333333337" y1="300.0" x2="400.0" y2="300.0"/>
<line x1="400.0" y1="275.0" x2="400.0" y2="300.0"/>
<line x1="383.33333333333337" y1="325.0" x2="400.0" y2="325.0"/>
<line x1="383.33333333333337" y1="375.0" x2="400.0" y2="375.0"/>
<line x1="383.33333333333337" y1="400.0" x2="400.0" y2="400.0"/>
<line x1="400.0" y1="425.0" x2="400.0" y2="450.0"/>
<line x1="400.0" y1="450.0" x2="400.0" y2="475.0"/>
<line x1="383.33333333333337" y1="500.0" x2="400.0" y2="500.0"/>
<line x1="416.6666666666667" y1="25.0" x2="416.6666666666667" y2="50.0"/>
<line x1="400.0" y1="75.0" x2="416.6666666666667" y2="75.0"/>
<line x1="416.6666666666667" y1="50.0" x2="416.6666666666667" y2="75.0"/>
<line x1="400.0" y1="100.0" x2="416.6666666666667" y2="100.0"/>
<line x1="416.6666666666667" y1="125.0" x2="416.6666666666667" y2="150.0"/>
<line x1="400.0" y1="175.0" x2="416.6666666666667" y2="175.0"/>
<line x1="400.0" y1="200.0" x2="416.6666666666667" y2="200.0"/>
<line x1="400.0" y1="250.0" x2="416.6666666666667" y2="250.0"/>
<line x1="416.6666666666667" y1="225.0" x2="416.6666666666667" y2="250.0"/>
<line x1="400.0" y1="300.0" x2="416.6666666666667" y2="300.0"/>
<line x1="400.0" y1="325.0" x2="416.6666666666667" y2="325.0"/>
<line x1="400.0" y1="350.0" x2="416.6666666666667" y2="350.0"/>
<line x1="416.6666666666667" y1="325.0" x2="416.6666666666667" y2="350.0"/>
<line x1="400.0" y1="375.0" x2="416.6666666666667" y2="375.0"/>
<line x1="400.0" y1="400.0" x2="416.6666666666667" y2="400.0"/>
<line x1="416.6666666666667" y1="425.0" x2="416.6666666666667" y2="450.0"/>
<line x1="400.0" y1="475.0" x2="416.6666666666667" y2="475.0"/>
<line x1="416.6666666666667" y1="450.0" x2="416.6666666666667" y2="475.0"/>
<line x1="416.6666666666667" y1="475.0" x2="416.6666666666667" y2="500.0"/>
<line x1="433.33333333333337" y1="0.0" x2="433.33333333333337" y2="25.0"/>
<line x1="416.6666666666667" y1="50.0" x2="433.33333333333337" y2="50.0"/>
<line x1="433.33333333333337" y1="25.0" x2="433.33333333333337" y2="50.0"/>
<line x1="416.6666666666667" y1="100.0" x2="433.33333333333337" y2="100.0"/>
<line x1="416.6666666666667" y1="125.0" x2="433.33333333333337" y2="125.0"/>
<line x1="416.6666666666667" y1="150.0" x2="433.33333333333337" y2="150.0"/>
<line x1="433.33333333333337" y1="150.0" x2="433.33333333333337" y2="175.0"/>
<line x1="416.6666666666667" y1="200.0" x2="433.33333333333337" y2="200.0"/>
<line x1="433.33333333333337" y1="175.0" x2="433.33333333333337" y2="200.0"/>
<line x1="433.33333333333337" y1="225.0" x2="433.33333333333337" y2="250.0"/>
<line x1="416.6666666666667" y1="275.0" x2="433.33333333333337" y2="275.0"/>
<line x1="433.33333333333337" y1="250.0" x2="433.33333333333337" y2="275.0"/>
<line x1="416.6666666666667" y1="300.0" x2="433.33333333333337" y2="300.0"/>
<line x1="433.33333333333337" y1="300.0" x2="433.33333333333337" y2="325.0"/>
<line x1="433.33333333333337" y1="325.0" x2="433.33333333333337" y2="350.0"/>
<line x1="416.6666666666667" y1="375.0" x2="433.33333333333337" y2="375.0"/>
<line x1="416.6666666666667" y1="400.0" x2="433.33333333333337" y2="400.0"/>
<line x1="416.6666666666667" y1="425.0" x2="433.33333333333337" y2="425.0"/>
<line x1="433.33333333333337" y1="400.0" x2="433.33333333333337" y2="425.0"/>
<line x1="433.33333333333337" y1="450.0" x2="433.33333333333337" y2="475.0"/>
<line x1="433.33333333333337" y1="475.0" x2="433.33333333333337" y2="500.0"/>
<line x1="450.00000000000006" y1="25.0" x2="450.00000000000006" y2="50.0"/>
<line x1="433.33333333333337" y1="75.0" x2="450.00000000000006" y2="75.0"/>
<line x1="433.33333333333337" y1="100.0" x2="450.00000000000006" y2="100.0"/>
<line x1="450.00000000000006" y1="75.0" x2="450.00000000000006" y2="100.0"/>
<line x1="433.33333333333337" y1="125.0" x2="450.00000000000006" y2="125.0"/>
<line x1="433.33333333333337" y1="175.0" x2="450.00000000000006" y2="175.0"/>
<line x1="450.00000000000006" y1="150.0" x2="450.00000000000006" y2="175.0"/>
<line x1="433.33333333333337" y1="225.0" x2="450.00000000000006" y2="225.0"/>
<line x1="450.00000000000006" y1="200.0" x2="450.00000000000006" y2="225.0"/>
<line x1="433.33333333333337" y1="275.0" x2="450.00000000000006" y2="275.0"/>
<line x1="450.00000000000006" y1="250.0" x2="450.00000000000006" y2="275.0"/>
<line x1="450.00000000000006" y1="275.0" x2="450.00000000000006" y2="300.0"/>
<line x1="433.33333333333337" y1="325.0" x2="450.00000000000006" y2="325.0"/>
<line x1="433.33333333333337" y1="375.0" x2="450.00000000000006" y2="375.0"/>
<line x1="450.00000000000006" y1="350.0" x2="450.00000000000006" y2="375.0"/>
<line x1="433.33333333333337" y1="400.0" x2="450.00000000000006" y2="400.0"/>
<line x1="433.33333333333337" y1="450.0" x2="450.00000000000006" y2="450.0"/>
<line x1="450.00000000000006" y1="425.0" x2="450.00000000000006" y2="450.0"/>
<line x1="450.00000000000006" y1="450.0" x2="450.00000000000006" y2="475.0"/>
<line x1="450.00000000000006" y1="475.0" x2="450.00000000000006" y2="500.0"/>
<line x1="450.00000000000006" y1="25.0" x2="466.6666666666667" y2="25.0"/>
<line x1="466.6666666666667" y1="25.0" x2="466.6666666666667" y2="50.0"/>
<line x1="450.00000000000006" y1="75.0" x2="466.6666666666667" y2="75.0"/>
<line x1="450.00000000000006" y1="125.0" x2="466.6666666666667" y2="125.0"/>
<line x1="466.6666666666667" y1="100.0" x2="466.6666666666667" y2="125.0"/>
<line x1="450.00000000000006" y1="175.0" x2="466.6666666666667" y2="175.0"/>
<line x1="450.00000000000006" y1="200.0" x2="466.6666666666667" y2="200.0"/>
<line x1="450.00000000000006" y1="250.0" x2="466.6666666666667" y2="250.0"/>
<line x1="466.6666666666667" y1="225.0" x2="466.6666666666667" y2="250.0"/>
<line x1="466.6666666666667" y1="275.0" x2="466.6666666666667" y2="300.0"/>
<line x1="450.00000000000006" y1="325.0" x2="466.6666666666667" y2="325.0"/>
<line x1="466.6666666666667" y1="300.0" x2="466.6666666666667" y2="325.0"/>
<line x1="450.00000000000006" y1="350.0" x2="466.6666666666667" y2="350.0"/>
<line x1="450.00000000000006" y1="375.0" x2="466.6666666666667" y2="375.0"/>
<line x1="450.00000000000006" y1="400.0" x2="466.6666666666667" y2="400.0"/>
<line x1="450.00000000000006" y1="450.0" x2="466.6666666666667" y2="450.0"/>
<line x1="466.6666666666667" y1="475.0" x2="466.6666666666667" y2="500.0"/>
<line x1="466.6666666666667" y1="50.0" x2="483.33333333333337" y2="50.0"/>
<line x1="466.6666666666667" y1="75.0" x2="483.33333333333337" y2="75.0"/>
<line x1="483.33333333333337" y1="50.0" x2="483.33333333333337" y2="75.0"/>
<line x1="466.6666666666667" y1="100.0" x2="483.33333333333337" y2="100.0"/>
<line x1="466.6666666666667" y1="150.0" x2="483.33333333333337" y2="150.0"/>
<line x1="483.33333333333337" y1="125.0" x2="483.33333333333337" y2="150.0"/>
<line x1="483.33333333333337" y1="150.0" x2="483.33333333333337" y2="175.0"/>
<line x1="466.6666666666667" y1="200.0" x2="483.33333333333337" y2="200.0"/>
<line x1="483.33333333333337" y1="175.0" x2="483.33333333333337" y2="200.0"/>
<line x1="483.33333333333337" y1="200.0" x2="483.33333333333337" y2="225.0"/>
<line x1="466.6666666666667" y1="250.0" x2="483.33333333333337" y2="250.0"/>
<line x1="483.33333333333337" y1="250.0" x2="483.33333333333337" y2="275.0"/>
<line x1="483.33333333333337" y1="275.0" x2="483.33333333333337" y2="300.0"/>
<line x1="483.33333333333337" y1="325.0" x2="483.33333333333337" y2="350.0"/>
<line x1="466.6666666666667" y1="375.0" x2="483.33333333333337" y2="375.0"/>
<line x1="483.33333333333337" y1="350.0" x2="483.33333333333337" y2="375.0"/>
<line x1="466.6666666666667" y1="400.0" x2="483.33333333333337" y2="400.0"/>
<line x1="466.6666666666667" y1="425.0" x2="483.33333333333337" y2="425.0"/>
<line x1="483.33333333333337" y1="425.0" x2="483.33333333333337" y2="450.0"/>
<line x1="466.6666666666667" y1="475.0" x2="483.33333333333337" y2="475.0"/>
<line x1="483.33333333333337" y1="450.0" x2="483.33333333333337" y2="475.0"/>
<line x1="483.33333333333337" y1="25.0" x2="500.00000000000006" y2="25.0"/>
<line x1="500.00000000000006" y1="25.0" x2="500.00000000000006" y2="50.0"/>
<line x1="500.00000000000006" y1="50.0" x2="500.00000000000006" y2="75.0"/>
<line x1="483.33333333333337" y1="100.0" x2="500.00000000000006" y2="100.0"/>
<line x1="500.00000000000006" y1="75.0" x2="500.00000000000006" y2="100.0"/>
<line x1="483.33333333333337" y1="125.0" x2="500.00000000000006" y2="125.0"/>
<line x1="483.33333333333337" y1="200.0" x2="500.00000000000006" y2="200.0"/>
<line x1="483.33333333333337" y1="250.0" x2="500.00000000000006" y2="250.0"/>
<line x1="500.00000000000006" y1="225.0" x2="500.00000000000006" y2="250.0"/>
<line x1="483.33333333333337" y1="300.0" x2="500.00000000000006" y2="300.0"/>
<line x1="483.33333333333337" y1="325.0" x2="500.00000000000006" y2="325.0"/>
<line x1="500.00000000000006" y1="350.0" x2="500.00000000000006" y2="375.0"/>
<line x1="483.33333333333337" y1="400.0" x2="500.00000000000006" y2="400.0"/>
<line x1="500.00000000000006" y1="375.0" x2="500.00000000000006" y2="400.0"/>
<line x1="483.33333333333337" y1="425.0" x2="500.00000000000006" y2="425.0"/>
<line x1="500.00000000000006" y1="450.0" x2="500.00000000000006" y2="475.0"/>
<line x1="483.33333333333337" y1="500.0" x2="500.00000000000006" y2="500.0"/>
<line x1="500.00000000000006" y1="475.0" x2="500.00000000000006" y2="500.0"/>
<line x1="0" y1="0" x2="500" y2="0"/>
<line x1="0" y1="0" x2="0" y2="500"/>
</svg>
